# Blender 4.0.2
# www.blender.org
mtllib watermelon slice.mtl
o watermelon
v -0.215110 0.477653 -1.142644
v 0.000000 0.456110 -1.169257
v -0.368130 0.053070 0.000000
v 0.000000 -0.010299 0.000000
v -0.077470 0.931704 -1.305577
v -0.152721 0.691153 -1.256010
v 0.000000 0.933104 -1.336294
v 0.000000 0.684800 -1.294395
v 0.000000 0.265320 -0.963684
v -0.265941 0.305618 -0.950856
v 0.000000 0.119277 -0.688326
v -0.319425 0.172836 -0.684402
v 0.000000 0.023883 -0.358456
v -0.355377 0.084859 -0.357966
v -0.013981 1.130958 -1.322278
v 0.000000 1.146107 -1.339595
v -0.013981 1.063885 0.000000
v -0.013981 1.072348 -0.357966
v -0.013981 1.090437 -0.684402
v -0.013981 1.108217 -0.950857
v -0.013981 1.120711 -1.142644
v -0.013981 1.127407 -1.256011
v -0.013981 1.130092 -1.305577
v -0.077894 0.893405 -0.684402
v -0.080123 0.868094 0.000000
v -0.076723 0.929125 -1.256011
v -0.074958 0.910592 -0.950857
v -0.079607 0.876020 -0.357966
v -0.075279 0.922670 -1.142644
v -0.160241 0.637488 0.000000
v -0.159099 0.644253 -0.357966
v -0.155312 0.659553 -0.684402
v -0.148819 0.674821 -0.950857
v -0.149529 0.685517 -1.142644
v -0.223691 0.456075 -0.684402
v -0.229310 0.443250 -0.357966
v -0.231004 0.437644 0.000000
v -0.214057 0.468843 -0.950856
v -0.287283 0.279912 0.000000
v -0.285150 0.284567 -0.357966
v -0.278073 0.295199 -0.684402
v -0.327610 0.163948 -0.357966
v -0.330077 0.160025 0.000000
v -0.358063 0.081415 0.000000
v 0.000000 1.145232 -1.322278
v 0.000000 1.146107 -1.339595
v 0.000000 1.078137 0.000000
v 0.000000 1.086606 -0.357966
v 0.000000 1.104700 -0.684402
v 0.000000 1.122485 -0.950857
v 0.000000 1.134982 -1.142644
v 0.000000 1.141680 -1.256011
v 0.000000 1.144366 -1.305577
v -0.215110 0.477653 1.142644
v 0.000000 0.456110 1.169257
v -0.077470 0.931704 1.305577
v -0.152721 0.691153 1.256010
v 0.000000 0.933104 1.336294
v 0.000000 0.684800 1.294395
v 0.000000 0.265320 0.963684
v -0.265941 0.305618 0.950856
v 0.000000 0.119277 0.688326
v -0.319425 0.172836 0.684402
v 0.000000 0.023883 0.358456
v -0.355377 0.084859 0.357966
v -0.013981 1.130958 1.322278
v 0.000000 1.146107 1.339595
v -0.013981 1.072348 0.357966
v -0.013981 1.090437 0.684402
v -0.013981 1.108217 0.950857
v -0.013981 1.120711 1.142644
v -0.013981 1.127407 1.256011
v -0.013981 1.130092 1.305577
v -0.077894 0.893405 0.684402
v -0.076723 0.929125 1.256011
v -0.074958 0.910592 0.950857
v -0.079607 0.876020 0.357966
v -0.075279 0.922670 1.142644
v -0.159099 0.644253 0.357966
v -0.155312 0.659553 0.684402
v -0.148819 0.674821 0.950857
v -0.149529 0.685517 1.142644
v -0.223691 0.456075 0.684402
v -0.229310 0.443250 0.357966
v -0.214057 0.468843 0.950856
v -0.285150 0.284567 0.357966
v -0.278073 0.295199 0.684402
v -0.327610 0.163948 0.357966
v 0.000000 1.145232 1.322278
v 0.000000 1.146107 1.339595
v 0.000000 1.086606 0.357966
v 0.000000 1.104700 0.684402
v 0.000000 1.122485 0.950857
v 0.000000 1.134982 1.142644
v 0.000000 1.141680 1.256011
v 0.000000 1.144366 1.305577
v 0.215110 0.477653 -1.142644
v 0.368130 0.053070 0.000000
v 0.077470 0.931704 -1.305577
v 0.152721 0.691153 -1.256010
v 0.265941 0.305618 -0.950856
v 0.319425 0.172836 -0.684402
v 0.355377 0.084859 -0.357966
v 0.013981 1.130958 -1.322278
v 0.013981 1.063885 0.000000
v 0.013981 1.072348 -0.357966
v 0.013981 1.090437 -0.684402
v 0.013981 1.108217 -0.950857
v 0.013981 1.120711 -1.142644
v 0.013981 1.127407 -1.256011
v 0.013981 1.130092 -1.305577
v 0.077894 0.893405 -0.684402
v 0.080123 0.868094 0.000000
v 0.076723 0.929125 -1.256011
v 0.074958 0.910592 -0.950857
v 0.079607 0.876020 -0.357966
v 0.075279 0.922670 -1.142644
v 0.160241 0.637488 0.000000
v 0.159099 0.644253 -0.357966
v 0.155312 0.659553 -0.684402
v 0.148819 0.674821 -0.950857
v 0.149529 0.685517 -1.142644
v 0.223691 0.456075 -0.684402
v 0.229310 0.443250 -0.357966
v 0.231004 0.437644 0.000000
v 0.214057 0.468843 -0.950856
v 0.287283 0.279912 0.000000
v 0.285150 0.284567 -0.357966
v 0.278073 0.295199 -0.684402
v 0.327610 0.163948 -0.357966
v 0.330077 0.160025 0.000000
v 0.358063 0.081415 0.000000
v 0.215110 0.477653 1.142644
v 0.077470 0.931704 1.305577
v 0.152721 0.691153 1.256010
v 0.265941 0.305618 0.950856
v 0.319425 0.172836 0.684402
v 0.355377 0.084859 0.357966
v 0.013981 1.130958 1.322278
v 0.013981 1.072348 0.357966
v 0.013981 1.090437 0.684402
v 0.013981 1.108217 0.950857
v 0.013981 1.120711 1.142644
v 0.013981 1.127407 1.256011
v 0.013981 1.130092 1.305577
v 0.077894 0.893405 0.684402
v 0.076723 0.929125 1.256011
v 0.074958 0.910592 0.950857
v 0.079607 0.876020 0.357966
v 0.075279 0.922670 1.142644
v 0.159099 0.644253 0.357966
v 0.155312 0.659553 0.684402
v 0.148819 0.674821 0.950857
v 0.149529 0.685517 1.142644
v 0.223691 0.456075 0.684402
v 0.229310 0.443250 0.357966
v 0.214057 0.468843 0.950856
v 0.285150 0.284567 0.357966
v 0.278073 0.295199 0.684402
v 0.327610 0.163948 0.357966
v 0.203494 0.406812 -0.124881
v 0.187344 0.471254 -0.108923
v 0.213627 0.429441 -0.181752
v 0.194728 0.487721 -0.150366
v 0.244298 0.416379 -0.113771
v 0.220656 0.479071 -0.099853
v 0.254431 0.439010 -0.170642
v 0.228040 0.495539 -0.141295
v 0.205652 0.410247 -0.157225
v 0.190399 0.435942 -0.112621
v 0.185824 0.485433 -0.127947
v 0.201077 0.459772 -0.172550
v 0.237752 0.430722 -0.186493
v 0.209581 0.499438 -0.146306
v 0.246256 0.470371 -0.160249
v 0.256934 0.422272 -0.143261
v 0.224899 0.494604 -0.117307
v 0.235577 0.446540 -0.100320
v 0.224834 0.401869 -0.113993
v 0.201142 0.480622 -0.098948
v 0.187217 0.445833 -0.144906
v 0.225680 0.469584 -0.177703
v 0.249438 0.460429 -0.127964
v 0.210974 0.436764 -0.095168
v 0.236184 0.402338 -0.155452
v 0.200471 0.503943 -0.117419
v 0.090249 0.741491 -0.554743
v 0.085868 0.791496 -0.526809
v 0.094615 0.772122 -0.596943
v 0.089049 0.813866 -0.557561
v 0.125679 0.743852 -0.549444
v 0.114793 0.793424 -0.522482
v 0.130044 0.774483 -0.591644
v 0.117974 0.815794 -0.553234
v 0.088784 0.751490 -0.580158
v 0.084119 0.763345 -0.537307
v 0.084056 0.807519 -0.538924
v 0.088720 0.795659 -0.581776
v 0.113831 0.772515 -0.603727
v 0.102837 0.821440 -0.553957
v 0.127948 0.798273 -0.575908
v 0.133312 0.754458 -0.573498
v 0.117984 0.809780 -0.533849
v 0.123348 0.765960 -0.531439
v 0.108265 0.733476 -0.549929
v 0.099202 0.795870 -0.518817
v 0.079021 0.778994 -0.560648
v 0.109202 0.803070 -0.587229
v 0.133047 0.782595 -0.552567
v 0.102866 0.758568 -0.525986
v 0.112939 0.742476 -0.584455
v 0.099128 0.819169 -0.528759
v 0.062460 0.851288 0.788677
v 0.059251 0.898781 0.751540
v 0.056480 0.822348 0.742147
v 0.054894 0.877608 0.717633
v 0.099626 0.852161 0.783335
v 0.089594 0.899489 0.747179
v 0.093646 0.823216 0.736805
v 0.085237 0.878313 0.713272
v 0.055334 0.831084 0.769421
v 0.057723 0.877688 0.775047
v 0.053812 0.893761 0.731640
v 0.051423 0.847132 0.726015
v 0.074878 0.813200 0.736406
v 0.069118 0.882071 0.709709
v 0.092574 0.848090 0.720101
v 0.102045 0.832179 0.762708
v 0.089403 0.894588 0.726525
v 0.098875 0.878651 0.769132
v 0.082501 0.850079 0.795723
v 0.074097 0.906278 0.748456
v 0.046812 0.862223 0.751646
v 0.070810 0.841849 0.713810
v 0.103486 0.863546 0.743501
v 0.079487 0.883934 0.781337
v 0.080025 0.819840 0.773040
v 0.070272 0.905991 0.722107
v 0.038118 0.912391 -0.786669
v 0.037932 0.933116 -0.726269
v 0.022755 0.964302 -0.801147
v 0.026736 0.970952 -0.736819
v 0.075538 0.923086 -0.788627
v 0.068482 0.941854 -0.727868
v 0.060175 0.974996 -0.803105
v 0.057286 0.979690 -0.738418
v 0.025800 0.935560 -0.800509
v 0.035757 0.916780 -0.754903
v 0.029523 0.952663 -0.724553
v 0.019567 0.971488 -0.770159
v 0.039522 0.975395 -0.810968
v 0.041044 0.979416 -0.731519
v 0.060999 0.983333 -0.772327
v 0.072830 0.949000 -0.802970
v 0.065358 0.962914 -0.726428
v 0.077189 0.928626 -0.757071
v 0.059108 0.909220 -0.792511
v 0.053838 0.936179 -0.719463
v 0.019847 0.941880 -0.762122
v 0.037229 0.987742 -0.774121
v 0.076909 0.958195 -0.765108
v 0.059526 0.912398 -0.753109
v 0.049668 0.939339 -0.816121
v 0.047087 0.960715 -0.711109
v -0.214848 0.485947 -0.383747
v -0.203065 0.538798 -0.354157
v -0.207295 0.515854 -0.430301
v -0.197562 0.560588 -0.388082
v -0.176519 0.479063 -0.381727
v -0.171773 0.533159 -0.352509
v -0.168967 0.508970 -0.428281
v -0.166270 0.554949 -0.386433
v -0.216787 0.496349 -0.411197
v -0.213486 0.510231 -0.364744
v -0.202227 0.555591 -0.367349
v -0.205527 0.541744 -0.413801
v -0.187886 0.511117 -0.439602
v -0.180730 0.564742 -0.385765
v -0.163089 0.534109 -0.411565
v -0.168614 0.487700 -0.408659
v -0.165522 0.548974 -0.365415
v -0.171048 0.502597 -0.362508
v -0.197515 0.472991 -0.380254
v -0.187019 0.539842 -0.346999
v -0.217511 0.527407 -0.389694
v -0.182807 0.543884 -0.421936
v -0.159064 0.516892 -0.386615
v -0.193768 0.500485 -0.354374
v -0.194365 0.480650 -0.418141
v -0.182210 0.563656 -0.358169
v -0.209985 0.528990 0.304675
v -0.201111 0.575996 0.289652
v -0.204739 0.519577 0.260324
v -0.197289 0.569109 0.257333
v -0.178675 0.526226 0.308852
v -0.175550 0.573727 0.293062
v -0.173429 0.516809 0.264501
v -0.171727 0.566838 0.260743
v -0.211961 0.519311 0.282992
v -0.209160 0.553660 0.300948
v -0.200832 0.578065 0.272168
v -0.203633 0.543722 0.254212
v -0.188943 0.511595 0.257347
v -0.183656 0.572801 0.255703
v -0.168966 0.540649 0.258838
v -0.172611 0.515837 0.288242
v -0.170848 0.575401 0.276169
v -0.174494 0.550592 0.305573
v -0.195630 0.523592 0.313887
v -0.188024 0.580676 0.292634
v -0.212935 0.549257 0.276708
v -0.185257 0.540319 0.247710
v -0.165191 0.545028 0.283078
v -0.192870 0.554010 0.312075
v -0.193502 0.506417 0.287776
v -0.184624 0.587904 0.272009
v -0.102255 0.878381 0.706692
v -0.086074 0.892054 0.645927
v -0.095253 0.826645 0.686382
v -0.080972 0.854347 0.631126
v -0.064279 0.880447 0.715062
v -0.055071 0.893752 0.652760
v -0.057278 0.828712 0.694752
v -0.049969 0.856045 0.637960
v -0.104917 0.849982 0.701902
v -0.098607 0.889915 0.677400
v -0.084918 0.875295 0.631495
v -0.091229 0.835393 0.655998
v -0.076590 0.818333 0.694216
v -0.063819 0.854756 0.627047
v -0.049181 0.837688 0.665265
v -0.057189 0.852577 0.712422
v -0.048551 0.877288 0.639511
v -0.056559 0.892210 0.686667
v -0.085516 0.884285 0.720108
v -0.069650 0.897845 0.643959
v -0.102848 0.862201 0.664951
v -0.068813 0.826272 0.656595
v -0.044940 0.865362 0.677714
v -0.078974 0.901360 0.686070
v -0.083754 0.846553 0.720677
v -0.064034 0.881017 0.621988
v -0.097639 0.842169 -0.623669
v -0.088093 0.881531 -0.586625
v -0.091996 0.878666 -0.657011
v -0.083980 0.908167 -0.610922
v -0.063954 0.836828 -0.623487
v -0.060592 0.877165 -0.586477
v -0.058311 0.873327 -0.656830
v -0.056480 0.903803 -0.610774
v -0.099766 0.857266 -0.644916
v -0.096753 0.858917 -0.602007
v -0.087792 0.899054 -0.594234
v -0.090806 0.897405 -0.637142
v -0.075001 0.877191 -0.666054
v -0.069313 0.911720 -0.608030
v -0.053509 0.891490 -0.636942
v -0.057430 0.850555 -0.644688
v -0.055534 0.893933 -0.594061
v -0.059456 0.853000 -0.601807
v -0.082196 0.830671 -0.623549
v -0.074013 0.881277 -0.580265
v -0.100814 0.879263 -0.619613
v -0.071035 0.901716 -0.643669
v -0.049448 0.871115 -0.619336
v -0.079226 0.848708 -0.595280
v -0.079906 0.845880 -0.654355
v -0.070355 0.904539 -0.584594
v -0.230725 0.479819 -0.017026
v -0.214545 0.539127 -0.016285
v -0.223724 0.485119 -0.072196
v -0.209442 0.542978 -0.056487
v -0.192750 0.471945 -0.012966
v -0.183541 0.532683 -0.012970
v -0.185748 0.477244 -0.068135
v -0.178439 0.536535 -0.053172
v -0.233388 0.476963 -0.045993
v -0.227077 0.509753 -0.011835
v -0.213388 0.548107 -0.035812
v -0.219699 0.515331 -0.069970
v -0.205061 0.475427 -0.078607
v -0.192290 0.546536 -0.056838
v -0.177651 0.506602 -0.065475
v -0.185659 0.467070 -0.040890
v -0.177022 0.540546 -0.031924
v -0.185029 0.501026 -0.007339
v -0.213986 0.468669 -0.008276
v -0.198120 0.542137 -0.010898
v -0.231318 0.514166 -0.041750
v -0.197284 0.512034 -0.078687
v -0.173410 0.502145 -0.035559
v -0.207445 0.504353 0.001378
v -0.212224 0.458378 -0.045247
v -0.192504 0.557984 -0.032063
v 0.143378 0.576056 0.213853
v 0.128869 0.633316 0.195410
v 0.152482 0.568141 0.159212
v 0.135503 0.627528 0.155592
v 0.180036 0.588446 0.218289
v 0.158797 0.643433 0.199032
v 0.189140 0.580530 0.163647
v 0.165431 0.637645 0.159214
v 0.145317 0.564225 0.187216
v 0.131614 0.604196 0.209365
v 0.127504 0.635814 0.173935
v 0.141207 0.595840 0.151786
v 0.174156 0.567001 0.155174
v 0.148847 0.638450 0.153308
v 0.181796 0.609560 0.156697
v 0.191389 0.579796 0.192791
v 0.162609 0.647682 0.178182
v 0.172202 0.617915 0.214276
v 0.162550 0.577088 0.224833
v 0.141266 0.645067 0.198809
v 0.128755 0.597407 0.179649
v 0.163311 0.601140 0.143381
v 0.184654 0.616302 0.186413
v 0.150099 0.612647 0.222681
v 0.172747 0.558865 0.192634
v 0.140662 0.654928 0.173429
vn -0.8076 0.1400 -0.5728
vn -0.7807 -0.0341 -0.6239
vn -0.0000 -0.2982 -0.9545
vn -0.0000 -0.0538 -0.9986
vn -0.7800 -0.2568 -0.5706
vn -0.0000 -0.6009 -0.7993
vn -0.0000 -0.8153 -0.5790
vn -0.7953 -0.4076 -0.4488
vn -0.8267 -0.4761 -0.2997
vn -0.0000 -0.9280 -0.3725
vn -0.8443 -0.5144 -0.1500
vn -0.0000 -0.9827 -0.1852
vn -0.8490 -0.5283 -0.0000
vn -0.0000 -1.0000 -0.0000
vn -0.0000 0.8178 -0.5755
vn -0.8168 0.4180 -0.3976
vn -0.9530 0.3018 0.0281
vn -0.9541 0.2985 0.0248
vn -0.9533 0.3005 0.0294
vn -0.9435 0.3312 -0.0081
vn -0.9427 0.3337 -0.0000
vn -0.9426 0.3340 -0.0000
vn -0.9469 0.3210 -0.0187
vn -0.9439 0.3301 -0.0054
vn -0.9519 0.3065 0.0004
vn -0.9480 0.3180 -0.0111
vn -0.9526 0.3043 0.0075
vn -0.8569 0.5145 0.0324
vn -0.8563 0.5157 0.0290
vn -0.9507 0.3101 0.0096
vn -0.9537 0.3006 0.0142
vn -0.8577 0.5131 0.0326
vn -0.8558 0.5165 0.0293
vn -0.8579 0.5127 0.0335
vn -0.9466 0.3225 -0.0000
vn -0.9476 0.3193 0.0084
vn -0.8543 0.5195 0.0195
vn -0.8540 0.5202 -0.0000
vn -0.9491 0.3151 -0.0007
vn -0.9443 0.3291 -0.0000
vn -0.9456 0.3254 0.0037
vn -0.9430 0.3329 -0.0000
vn -0.9443 0.3290 -0.0012
vn -0.9426 0.3341 -0.0000
vn -0.0000 0.9992 0.0398
vn -0.0000 1.0000 -0.0000
vn -0.0000 0.9987 0.0511
vn -0.0000 0.9986 0.0529
vn -0.0000 0.9984 0.0565
vn -0.0000 0.9981 0.0619
vn -0.0000 0.9987 0.0505
vn -0.0000 0.9978 0.0658
vn -0.0000 0.9981 0.0611
vn -0.8076 0.1400 0.5728
vn -0.0000 -0.0538 0.9986
vn -0.0000 -0.2982 0.9545
vn -0.7807 -0.0341 0.6239
vn -0.0000 -0.6009 0.7993
vn -0.7800 -0.2568 0.5706
vn -0.0000 -0.8153 0.5790
vn -0.0000 -0.9280 0.3725
vn -0.8267 -0.4761 0.2997
vn -0.7953 -0.4076 0.4488
vn -0.0000 -0.9827 0.1852
vn -0.8443 -0.5144 0.1500
vn -0.8168 0.4180 0.3976
vn -0.0000 0.8178 0.5755
vn -0.9533 0.3005 -0.0294
vn -0.9541 0.2985 -0.0248
vn -0.9530 0.3018 -0.0281
vn -0.9435 0.3312 0.0081
vn -0.9439 0.3301 0.0054
vn -0.9469 0.3210 0.0187
vn -0.9480 0.3180 0.0111
vn -0.9519 0.3065 -0.0004
vn -0.9526 0.3043 -0.0075
vn -0.8569 0.5145 -0.0324
vn -0.8563 0.5157 -0.0290
vn -0.9507 0.3101 -0.0096
vn -0.8558 0.5165 -0.0293
vn -0.8577 0.5131 -0.0326
vn -0.9537 0.3006 -0.0142
vn -0.8579 0.5127 -0.0335
vn -0.8543 0.5195 -0.0195
vn -0.9476 0.3193 -0.0084
vn -0.9491 0.3151 0.0007
vn -0.9456 0.3254 -0.0037
vn -0.9443 0.3290 0.0012
vn -0.0000 0.9992 -0.0398
vn -0.0000 0.9986 -0.0529
vn -0.0000 0.9987 -0.0511
vn -0.0000 0.9984 -0.0565
vn -0.0000 0.9981 -0.0619
vn -0.0000 0.9987 -0.0505
vn -0.0000 0.9978 -0.0658
vn -0.0000 0.9981 -0.0611
vn 0.8076 0.1400 -0.5728
vn 0.7807 -0.0341 -0.6239
vn 0.7800 -0.2568 -0.5706
vn 0.8267 -0.4761 -0.2997
vn 0.7953 -0.4076 -0.4488
vn 0.8443 -0.5144 -0.1500
vn 0.8490 -0.5283 -0.0000
vn 0.8168 0.4180 -0.3976
vn 0.9533 0.3005 0.0294
vn 0.9541 0.2985 0.0248
vn 0.9530 0.3018 0.0281
vn 0.9426 0.3340 -0.0000
vn 0.9427 0.3337 -0.0000
vn 0.9435 0.3312 -0.0081
vn 0.9439 0.3301 -0.0054
vn 0.9469 0.3210 -0.0187
vn 0.9480 0.3180 -0.0111
vn 0.9519 0.3065 0.0004
vn 0.9526 0.3043 0.0075
vn 0.8569 0.5145 0.0324
vn 0.8563 0.5157 0.0290
vn 0.9507 0.3101 0.0096
vn 0.8558 0.5165 0.0293
vn 0.8577 0.5131 0.0326
vn 0.9537 0.3006 0.0142
vn 0.8579 0.5127 0.0335
vn 0.9466 0.3225 -0.0000
vn 0.8540 0.5202 -0.0000
vn 0.8543 0.5195 0.0195
vn 0.9476 0.3193 0.0084
vn 0.9491 0.3151 -0.0007
vn 0.9443 0.3291 -0.0000
vn 0.9456 0.3254 0.0037
vn 0.9430 0.3329 -0.0000
vn 0.9443 0.3290 -0.0012
vn 0.9426 0.3341 -0.0000
vn 0.8076 0.1400 0.5728
vn 0.7807 -0.0341 0.6239
vn 0.7800 -0.2568 0.5706
vn 0.7953 -0.4076 0.4488
vn 0.8267 -0.4761 0.2997
vn 0.8443 -0.5144 0.1500
vn 0.8168 0.4180 0.3976
vn 0.9530 0.3018 -0.0281
vn 0.9541 0.2985 -0.0248
vn 0.9533 0.3005 -0.0294
vn 0.9435 0.3312 0.0081
vn 0.9469 0.3210 0.0187
vn 0.9439 0.3301 0.0054
vn 0.9519 0.3065 -0.0004
vn 0.9480 0.3180 0.0111
vn 0.9526 0.3043 -0.0075
vn 0.8569 0.5145 -0.0324
vn 0.8563 0.5157 -0.0290
vn 0.9507 0.3101 -0.0096
vn 0.9537 0.3006 -0.0142
vn 0.8577 0.5131 -0.0326
vn 0.8558 0.5165 -0.0293
vn 0.8579 0.5127 -0.0335
vn 0.9476 0.3193 -0.0084
vn 0.8543 0.5195 -0.0195
vn 0.9491 0.3151 0.0007
vn 0.9456 0.3254 -0.0037
vn 0.9443 0.3290 0.0012
vn 0.6256 0.7548 -0.1972
vn 0.8460 0.3253 -0.4225
vn 0.9587 0.1608 0.2346
vn 0.5873 0.7094 0.3897
vn 0.8733 -0.0734 -0.4816
vn 0.9243 -0.3815 0.0103
vn 0.6950 -0.4971 0.5195
vn 0.6456 -0.1768 0.7429
vn 0.4517 0.3227 0.8318
vn -0.1124 -0.5085 0.8537
vn -0.3122 0.2582 0.9142
vn 0.0986 -0.9006 0.4233
vn -0.5695 -0.8045 0.1688
vn -0.7756 -0.5262 0.3487
vn -0.8855 -0.0030 0.4646
vn -0.9109 -0.3009 -0.2823
vn -0.9402 0.3392 -0.0299
vn -0.5473 -0.7384 -0.3940
vn -0.4020 -0.3855 -0.8306
vn -0.5785 -0.0258 -0.8153
vn -0.7035 0.4320 -0.5643
vn 0.1957 0.2633 -0.9447
vn -0.0633 0.8547 -0.5152
vn 0.3248 -0.3599 -0.8746
vn -0.3003 0.9013 0.3122
vn 0.3021 -0.8997 -0.3150
vn 0.6899 0.7168 -0.1014
vn 0.8194 0.3407 -0.4610
vn 0.9943 0.0055 0.1064
vn 0.7219 0.5220 0.4543
vn 0.7865 -0.0242 -0.6171
vn 0.8634 -0.4457 -0.2364
vn 0.6959 -0.6701 0.2583
vn 0.7155 -0.4176 0.5600
vn 0.6003 0.0528 0.7980
vn -0.0604 -0.6984 0.7132
vn -0.1516 0.0367 0.9878
vn 0.0414 -0.9856 0.1641
vn -0.6460 -0.7614 0.0533
vn -0.7870 -0.5209 0.3306
vn -0.8106 -0.0433 0.5840
vn -0.9723 -0.1294 -0.1947
vn -0.8862 0.4132 0.2097
vn -0.6882 -0.5506 -0.4725
vn -0.5590 -0.1160 -0.8210
vn -0.6840 0.2372 -0.6898
vn -0.7174 0.6210 -0.3157
vn 0.0992 0.4782 -0.8726
vn -0.0241 0.9624 -0.2704
vn 0.1570 -0.1460 -0.9768
vn -0.1408 0.8067 0.5740
vn 0.1413 -0.8054 -0.5756
vn 0.6061 0.0855 -0.7908
vn 0.6962 -0.4044 -0.5931
vn 0.9939 -0.0385 -0.1037
vn 0.7512 0.5134 -0.4149
vn 0.6637 -0.6811 -0.3090
vn 0.8384 -0.5046 0.2060
vn 0.7805 -0.1164 0.6142
vn 0.8351 0.2528 0.4885
vn 0.7297 0.6655 0.1569
vn 0.1218 0.3941 0.9109
vn 0.0266 0.9381 0.3454
vn 0.1443 -0.2318 0.9620
vn -0.5678 -0.1520 0.8090
vn -0.6739 0.2124 0.7076
vn -0.6876 0.6291 0.3626
vn -0.9788 -0.0917 0.1831
vn -0.8628 0.4719 -0.1815
vn -0.7193 -0.5446 0.4314
vn -0.6892 -0.7158 -0.1122
vn -0.8144 -0.4444 -0.3732
vn -0.8087 0.0485 -0.5862
vn -0.0958 -0.6294 -0.7712
vn -0.1447 0.1239 -0.9817
vn -0.0110 -0.9707 -0.2402
vn -0.0952 0.8520 -0.5148
vn 0.0955 -0.8521 0.5146
vn 0.5154 0.8206 0.2470
vn 0.5557 0.7886 -0.2633
vn 0.9610 0.2556 -0.1059
vn 0.7682 0.3688 0.5232
vn 0.5190 0.5984 -0.6104
vn 0.7802 0.0636 -0.6223
vn 0.8173 -0.4446 -0.3665
vn 0.9087 -0.4174 -0.0014
vn 0.8366 -0.2368 0.4939
vn 0.2777 -0.9578 0.0745
vn 0.2052 -0.5935 0.7782
vn 0.2135 -0.8321 -0.5119
vn -0.4855 -0.8146 -0.3173
vn -0.5485 -0.8346 0.0506
vn -0.5440 -0.6336 0.5501
vn -0.9552 -0.2934 -0.0390
vn -0.8049 -0.0799 0.5880
vn -0.7409 -0.3707 -0.5601
vn -0.8016 0.2166 -0.5572
vn -0.9064 0.3666 -0.2100
vn -0.8508 0.4308 0.3007
vn -0.2740 0.9019 -0.3340
vn -0.2313 0.8765 0.4222
vn -0.1862 0.5133 -0.8378
vn -0.0259 0.2483 0.9683
vn 0.0254 -0.2403 -0.9704
vn 0.8254 0.5304 -0.1932
vn 0.8242 0.1348 -0.5500
vn 0.9707 -0.2404 0.0032
vn 0.8704 0.3350 0.3607
vn 0.6878 -0.2145 -0.6935
vn 0.6960 -0.6492 -0.3068
vn 0.5268 -0.8245 0.2064
vn 0.6409 -0.5873 0.4943
vn 0.6716 -0.0981 0.7344
vn -0.1574 -0.6668 0.7284
vn -0.0372 0.0727 0.9967
vn -0.1832 -0.9648 0.1886
vn -0.7982 -0.5851 0.1431
vn -0.8489 -0.3176 0.4224
vn -0.7304 0.1542 0.6654
vn -0.9896 0.1127 -0.0890
vn -0.7300 0.6218 0.2837
vn -0.8463 -0.3722 -0.3812
vn -0.6497 0.0262 -0.7598
vn -0.6691 0.4050 -0.6231
vn -0.5669 0.7815 -0.2607
vn 0.1256 0.4457 -0.8863
vn 0.1836 0.9382 -0.2934
vn 0.0177 -0.1791 -0.9837
vn 0.1194 0.8221 0.5566
vn -0.1195 -0.8195 -0.5605
vn 0.8118 0.2368 -0.5338
vn 0.8112 -0.3021 -0.5007
vn 0.9762 -0.1576 0.1487
vn 0.8666 0.4991 -0.0034
vn 0.6782 -0.6471 -0.3483
vn 0.7061 -0.6713 0.2254
vn 0.5526 -0.4240 0.7175
vn 0.6648 -0.0438 0.7457
vn 0.6842 0.4647 0.5620
vn -0.1269 0.0652 0.9898
vn -0.0203 0.7651 0.6436
vn -0.1581 -0.5415 0.8257
vn -0.7843 -0.3120 0.5363
vn -0.8354 0.0813 0.5436
vn -0.7208 0.5842 0.3731
vn -0.9930 0.0060 -0.1184
vn -0.7397 0.6354 -0.2214
vn -0.8417 -0.5397 0.0156
vn -0.6611 -0.5330 -0.5281
vn -0.6899 -0.1762 -0.7022
vn -0.5920 0.3552 -0.7235
vn 0.0966 -0.3339 -0.9376
vn 0.1569 0.4466 -0.8809
vn 0.0023 -0.8309 -0.5564
vn 0.1103 0.9750 -0.1927
vn -0.1101 -0.9751 0.1927
vn 0.8435 -0.3491 -0.4082
vn 0.7951 -0.6033 0.0622
vn 0.9597 0.0208 0.2802
vn 0.9014 0.2552 -0.3499
vn 0.6401 -0.6544 0.4025
vn 0.6612 -0.1891 0.7260
vn 0.5164 0.3835 0.7657
vn 0.6474 0.6054 0.4630
vn 0.7000 0.7130 -0.0414
vn -0.1430 0.8893 0.4344
vn 0.0167 0.9519 -0.3059
vn -0.2153 0.4285 0.8775
vn -0.8238 0.3142 0.4719
vn -0.8380 0.5278 0.1384
vn -0.6863 0.6410 -0.3436
vn -0.9867 -0.0774 -0.1431
vn -0.6946 0.1742 -0.6979
vn -0.8812 -0.2678 0.3896
vn -0.6811 -0.7230 0.1153
vn -0.6849 -0.6805 -0.2604
vn -0.5578 -0.4217 -0.7149
vn 0.0935 -0.9778 -0.1873
vn 0.2091 -0.5193 -0.8286
vn -0.0389 -0.9159 0.3995
vn 0.1806 0.3687 -0.9118
vn -0.1813 -0.3616 0.9145
vn 0.8137 0.5786 -0.0559
vn 0.8176 0.2856 -0.4999
vn 0.9767 -0.2062 -0.0601
vn 0.8665 0.2543 0.4296
vn 0.6906 -0.0172 -0.7230
vn 0.7138 -0.5282 -0.4599
vn 0.5566 -0.8307 -0.0083
vn 0.6647 -0.6707 0.3290
vn 0.6848 -0.2589 0.6812
vn -0.1333 -0.8300 0.5417
vn -0.0303 -0.1788 0.9834
vn -0.1558 -0.9860 -0.0594
vn -0.7863 -0.6178 -0.0051
vn -0.8392 -0.4306 0.3321
vn -0.7314 -0.0342 0.6811
vn -0.9930 0.1056 -0.0537
vn -0.7457 0.5077 0.4314
vn -0.8425 -0.2833 -0.4583
vn -0.6613 0.1973 -0.7237
vn -0.6887 0.5265 -0.4985
vn -0.5949 0.8020 -0.0542
vn 0.1060 0.6541 -0.7489
vn 0.1564 0.9865 -0.0492
vn 0.0139 0.0718 -0.9973
vn 0.1023 0.6579 0.7461
vn -0.1025 -0.6549 -0.7487
vn 0.8425 0.3218 -0.4321
vn 0.7986 -0.1994 -0.5678
vn 0.9550 -0.2813 0.0941
vn 0.9031 0.4009 0.1540
vn 0.6346 -0.5617 -0.5308
vn 0.6428 -0.7660 0.0073
vn 0.4939 -0.6727 0.5509
vn 0.6350 -0.3330 0.6970
vn 0.7008 0.2066 0.6828
vn -0.1520 -0.2369 0.9596
vn 0.0191 0.5257 0.8504
vn -0.2236 -0.7560 0.6152
vn -0.8210 -0.3957 0.4115
vn -0.8413 -0.0207 0.5402
vn -0.6826 0.4979 0.5350
vn -0.9851 0.1296 -0.1126
vn -0.6795 0.7335 -0.0149
vn -0.8818 -0.4454 -0.1555
vn -0.6837 -0.2838 -0.6723
vn -0.6786 0.1132 -0.7257
vn -0.5383 0.6124 -0.5790
vn 0.0997 -0.0311 -0.9945
vn 0.2173 0.6833 -0.6970
vn -0.0439 -0.6135 -0.7885
vn 0.1905 0.9743 0.1200
vn -0.1911 -0.9741 -0.1211
vn 0.6321 0.5459 -0.5500
vn 0.8506 0.0574 -0.5227
vn 0.9578 0.2601 0.1222
vn 0.5870 0.8094 -0.0189
vn 0.8745 -0.3107 -0.3725
vn 0.9251 -0.3219 0.2014
vn 0.6938 -0.1565 0.7030
vn 0.6403 0.2376 0.7305
vn 0.4471 0.7049 0.5506
vn -0.1222 0.0108 0.9924
vn -0.3155 0.6906 0.6508
vn 0.0925 -0.5569 0.8254
vn -0.5772 -0.6029 0.5507
vn -0.7822 -0.2674 0.5628
vn -0.8872 0.2371 0.3959
vn -0.9099 -0.4042 -0.0932
vn -0.9407 0.2762 -0.1971
vn -0.5480 -0.8359 0.0296
vn -0.3978 -0.7576 -0.5175
vn -0.5726 -0.4476 -0.6869
vn -0.7020 0.0783 -0.7079
vn 0.2042 -0.2672 -0.9417
vn -0.0574 0.4701 -0.8808
vn 0.3270 -0.7573 -0.5653
vn -0.2995 0.9359 -0.1853
vn 0.3009 -0.9354 0.1857
vt 0.149181 0.722356
vt 0.116684 0.674388
vt 0.185715 0.678755
vt 0.186673 0.724698
vt 0.090312 0.628139
vt 0.184741 0.632535
vt 0.183703 0.583316
vt 0.068338 0.580092
vt 0.045031 0.525296
vt 0.182557 0.528961
vt 0.029297 0.464006
vt 0.181298 0.469264
vt 0.023268 0.399776
vt 0.179979 0.406756
vt 0.186640 0.762345
vt 0.177590 0.761669
vt 0.805840 0.966470
vt 0.742762 0.966440
vt 0.742666 0.938195
vt 0.805616 0.938218
vt 0.962792 0.742702
vt 0.940666 0.742702
vt 0.940858 0.653524
vt 0.963002 0.653524
vt 0.940032 0.824046
vt 0.906283 0.824043
vt 0.906831 0.742703
vt 0.905357 0.890484
vt 0.861160 0.890462
vt 0.861897 0.824040
vt 0.861215 0.938240
vt 0.805583 0.890438
vt 0.690688 0.966418
vt 0.742813 0.978789
vt 0.690683 0.978766
vt 0.690681 0.982927
vt 0.742895 0.824029
vt 0.742659 0.890415
vt 0.690713 0.890400
vt 0.690730 0.824020
vt 0.690698 0.938177
vt 0.743077 0.653524
vt 0.743035 0.742702
vt 0.690740 0.742699
vt 0.690743 0.653524
vt 0.806085 0.824036
vt 0.806472 0.653524
vt 0.806382 0.742704
vt 0.862465 0.653524
vt 0.862333 0.742704
vt 0.906997 0.653524
vt 0.970967 0.653524
vt 0.685761 0.742698
vt 0.685764 0.653524
vt 0.685703 0.982925
vt 0.685704 0.978764
vt 0.685709 0.966417
vt 0.685719 0.938175
vt 0.186634 0.762348
vt 0.189236 0.765403
vt 0.685735 0.890398
vt 0.685751 0.824019
vt 0.135800 0.087814
vt 0.173285 0.088814
vt 0.174244 0.134758
vt 0.105265 0.132977
vt 0.175217 0.180978
vt 0.080795 0.176962
vt 0.176255 0.230197
vt 0.177402 0.284551
vt 0.039771 0.275961
vt 0.060809 0.223139
vt 0.178661 0.344248
vt 0.026597 0.335963
vt 0.162629 0.050919
vt 0.173319 0.051168
vt 0.805840 0.340577
vt 0.805616 0.368829
vt 0.742666 0.368852
vt 0.742762 0.340607
vt 0.962792 0.564346
vt 0.940666 0.564345
vt 0.940032 0.483001
vt 0.906831 0.564344
vt 0.906283 0.483004
vt 0.905357 0.416563
vt 0.861897 0.483007
vt 0.861160 0.416586
vt 0.861215 0.368807
vt 0.805583 0.416609
vt 0.690688 0.340629
vt 0.690683 0.328281
vt 0.742813 0.328258
vt 0.690681 0.324120
vt 0.742895 0.483019
vt 0.690730 0.483027
vt 0.690714 0.416647
vt 0.742660 0.416632
vt 0.690698 0.368870
vt 0.690740 0.564349
vt 0.743035 0.564345
vt 0.806085 0.483011
vt 0.806382 0.564344
vt 0.862333 0.564344
vt 0.685761 0.564349
vt 0.685704 0.328283
vt 0.685703 0.324123
vt 0.685709 0.340631
vt 0.685719 0.368872
vt 0.170723 0.048110
vt 0.173325 0.051164
vt 0.685735 0.416649
vt 0.685751 0.483028
vt 0.224159 0.725699
vt 0.254694 0.680535
vt 0.279163 0.636551
vt 0.320187 0.537552
vt 0.299149 0.590373
vt 0.333362 0.477550
vt 0.336691 0.413737
vt 0.197330 0.762593
vt 0.503264 0.340577
vt 0.503040 0.368829
vt 0.440090 0.368852
vt 0.440186 0.340607
vt 0.660216 0.564346
vt 0.660426 0.653524
vt 0.638282 0.653524
vt 0.638090 0.564345
vt 0.637456 0.483001
vt 0.604255 0.564344
vt 0.603707 0.483004
vt 0.602781 0.416563
vt 0.559321 0.483007
vt 0.558583 0.416586
vt 0.558639 0.368807
vt 0.503007 0.416609
vt 0.388112 0.340629
vt 0.388107 0.328281
vt 0.440237 0.328258
vt 0.388105 0.324120
vt 0.440319 0.483019
vt 0.388154 0.483027
vt 0.388137 0.416647
vt 0.440083 0.416632
vt 0.388122 0.368870
vt 0.440501 0.653524
vt 0.388167 0.653524
vt 0.388164 0.564349
vt 0.440459 0.564345
vt 0.503509 0.483011
vt 0.503895 0.653524
vt 0.503806 0.564344
vt 0.559889 0.653524
vt 0.559757 0.564344
vt 0.604421 0.653524
vt 0.668391 0.653524
vt 0.383188 0.653524
vt 0.383185 0.564349
vt 0.383128 0.328283
vt 0.383126 0.324123
vt 0.383133 0.340631
vt 0.383143 0.368872
vt 0.383159 0.416649
vt 0.383175 0.483028
vt 0.210778 0.091157
vt 0.243275 0.139125
vt 0.269647 0.185374
vt 0.291620 0.233420
vt 0.314928 0.288217
vt 0.330661 0.349507
vt 0.182369 0.051844
vt 0.503264 0.966470
vt 0.440186 0.966440
vt 0.440090 0.938195
vt 0.503040 0.938218
vt 0.660216 0.742702
vt 0.638090 0.742702
vt 0.637456 0.824046
vt 0.603707 0.824043
vt 0.604255 0.742703
vt 0.602781 0.890484
vt 0.558583 0.890462
vt 0.559321 0.824040
vt 0.558639 0.938240
vt 0.503007 0.890438
vt 0.388112 0.966419
vt 0.440237 0.978789
vt 0.388107 0.978766
vt 0.388105 0.982927
vt 0.440319 0.824029
vt 0.440083 0.890415
vt 0.388137 0.890400
vt 0.388154 0.824020
vt 0.388122 0.938177
vt 0.440459 0.742702
vt 0.388164 0.742699
vt 0.503509 0.824036
vt 0.503806 0.742704
vt 0.559757 0.742704
vt 0.383185 0.742698
vt 0.383126 0.982925
vt 0.383128 0.978764
vt 0.383133 0.966417
vt 0.383143 0.938175
vt 0.383159 0.890398
vt 0.383175 0.824019
vt 0.478841 0.117280
vt 0.493171 0.142275
vt 0.469410 0.154097
vt 0.454776 0.124780
vt 0.500405 0.172477
vt 0.485823 0.186981
vt 0.465467 0.189916
vt 0.445679 0.165980
vt 0.434317 0.139504
vt 0.421946 0.179952
vt 0.411293 0.133224
vt 0.463508 0.209779
vt 0.638314 0.130156
vt 0.637168 0.181300
vt 0.620116 0.170926
vt 0.612882 0.140724
vt 0.607374 0.093555
vt 0.598553 0.115730
vt 0.589121 0.152547
vt 0.574488 0.123230
vt 0.605535 0.185430
vt 0.585178 0.188365
vt 0.565390 0.164430
vt 0.554028 0.137954
vt 0.541657 0.178402
vt 0.531004 0.131674
vt 0.583219 0.208229
vt 0.518602 0.131706
vt 0.517457 0.182851
vt 0.487663 0.095105
vt 0.440716 0.096611
vt 0.560427 0.095061
vt 0.616914 0.208229
vt 0.497203 0.209779
s 1
usemtl watermelon
f 5/1/1 7/4/4 8/3/3 6/2/2
f 6/2/2 8/3/3 2/6/6 1/5/5
f 9/7/7 11/10/10 12/9/9 10/8/8
f 11/10/10 13/12/12 14/11/11 12/9/9
f 2/6/6 9/7/7 10/8/8 1/5/5
f 13/12/12 4/14/14 3/13/13 14/11/11
f 5/1/1 15/16/16 16/15/15 7/4/4
f 6/17/2 34/20/19 29/19/18 26/18/17
f 14/21/11 44/24/22 43/23/21 42/22/20
f 12/25/9 42/22/20 40/27/24 41/26/23
f 10/28/8 41/26/23 35/30/26 38/29/25
f 1/31/5 38/29/25 33/32/27 34/20/19
f 22/33/28 23/35/29 5/34/1 26/18/17
f 23/35/29 15/36/16 5/34/1
f 24/37/30 19/40/33 20/39/32 27/38/31
f 27/38/31 20/39/32 21/41/34 29/19/18
f 25/42/35 17/45/38 18/44/37 28/43/36
f 29/19/18 21/41/34 22/33/28 26/18/17
f 5/34/1 6/17/2 26/18/17
f 28/43/36 18/44/37 19/40/33 24/37/30
f 32/46/39 24/37/30 27/38/31 33/32/27
f 33/32/27 27/38/31 29/19/18 34/20/19
f 30/47/40 25/42/35 28/43/36 31/48/41
f 34/20/19 6/17/2 1/31/5
f 31/48/41 28/43/36 24/37/30 32/46/39
f 35/30/26 32/46/39 33/32/27 38/29/25
f 38/29/25 1/31/5 10/28/8
f 37/49/42 30/47/40 31/48/41 36/50/43
f 36/50/43 31/48/41 32/46/39 35/30/26
f 41/26/23 10/28/8 12/25/9
f 39/51/44 37/49/42 36/50/43 40/27/24
f 40/27/24 36/50/43 35/30/26 41/26/23
f 43/23/21 39/51/44 40/27/24 42/22/20
f 42/22/20 12/25/9 14/21/11
f 44/24/22 14/21/11 3/52/13
f 17/45/38 47/54/46 48/53/45 18/44/37
f 23/35/29 53/56/48 45/55/47 15/36/16
f 22/33/28 52/57/49 53/56/48 23/35/29
f 21/41/34 51/58/50 52/57/49 22/33/28
f 15/16/16 45/60/47 46/59/51 16/15/15
f 20/39/32 50/61/52 51/58/50 21/41/34
f 19/40/33 49/62/53 50/61/52 20/39/32
f 18/44/37 48/53/45 49/62/53 19/40/33
f 56/63/54 57/66/57 59/65/56 58/64/55
f 57/66/57 54/68/59 55/67/58 59/65/56
f 60/69/60 61/72/63 63/71/62 62/70/61
f 62/70/61 63/71/62 65/74/65 64/73/64
f 55/67/58 54/68/59 61/72/63 60/69/60
f 64/73/64 65/74/65 3/13/13 4/14/14
f 56/63/54 58/64/55 67/76/67 66/75/66
f 57/77/57 75/80/70 78/79/69 82/78/68
f 65/81/65 88/82/71 43/23/21 44/24/22
f 63/83/62 87/85/73 86/84/72 88/82/71
f 61/86/63 85/88/75 83/87/74 87/85/73
f 54/89/59 82/78/68 81/90/76 85/88/75
f 72/91/77 75/80/70 56/93/54 73/92/78
f 73/92/78 56/93/54 66/94/66
f 74/95/79 76/98/82 70/97/81 69/96/80
f 76/98/82 78/79/69 71/99/83 70/97/81
f 25/42/35 77/101/85 68/100/84 17/45/38
f 78/79/69 75/80/70 72/91/77 71/99/83
f 56/93/54 75/80/70 57/77/57
f 77/101/85 74/95/79 69/96/80 68/100/84
f 80/102/86 81/90/76 76/98/82 74/95/79
f 81/90/76 82/78/68 78/79/69 76/98/82
f 30/47/40 79/103/87 77/101/85 25/42/35
f 82/78/68 54/89/59 57/77/57
f 79/103/87 80/102/86 74/95/79 77/101/85
f 83/87/74 85/88/75 81/90/76 80/102/86
f 85/88/75 61/86/63 54/89/59
f 37/49/42 84/104/88 79/103/87 30/47/40
f 84/104/88 83/87/74 80/102/86 79/103/87
f 87/85/73 63/83/62 61/86/63
f 39/51/44 86/84/72 84/104/88 37/49/42
f 86/84/72 87/85/73 83/87/74 84/104/88
f 43/23/21 88/82/71 86/84/72 39/51/44
f 88/82/71 65/81/65 63/83/62
f 44/24/22 3/52/13 65/81/65
f 17/45/38 68/100/84 91/105/89 47/54/46
f 73/92/78 66/94/66 89/107/91 96/106/90
f 72/91/77 73/92/78 96/106/90 95/108/92
f 71/99/83 72/91/77 95/108/92 94/109/93
f 66/75/66 67/76/67 90/111/94 89/110/91
f 70/97/81 71/99/83 94/109/93 93/112/95
f 69/96/80 70/97/81 93/112/95 92/113/96
f 68/100/84 69/96/80 92/113/96 91/105/89
f 99/114/97 100/115/98 8/3/3 7/4/4
f 100/115/98 97/116/99 2/6/6 8/3/3
f 9/7/7 101/118/101 102/117/100 11/10/10
f 11/10/10 102/117/100 103/119/102 13/12/12
f 2/6/6 97/116/99 101/118/101 9/7/7
f 13/12/12 103/119/102 98/120/103 4/14/14
f 99/114/97 7/4/4 16/15/15 104/121/104
f 100/122/98 114/125/107 117/124/106 122/123/105
f 103/126/102 130/129/110 131/128/109 132/127/108
f 102/130/100 129/132/112 128/131/111 130/129/110
f 101/133/101 126/135/114 123/134/113 129/132/112
f 97/136/99 122/123/105 121/137/115 126/135/114
f 110/138/116 114/125/107 99/140/97 111/139/117
f 111/139/117 99/140/97 104/141/104
f 112/142/118 115/145/121 108/144/120 107/143/119
f 115/145/121 117/124/106 109/146/122 108/144/120
f 113/147/123 116/150/126 106/149/125 105/148/124
f 117/124/106 114/125/107 110/138/116 109/146/122
f 99/140/97 114/125/107 100/122/98
f 116/150/126 112/142/118 107/143/119 106/149/125
f 120/151/127 121/137/115 115/145/121 112/142/118
f 121/137/115 122/123/105 117/124/106 115/145/121
f 118/152/128 119/153/129 116/150/126 113/147/123
f 122/123/105 97/136/99 100/122/98
f 119/153/129 120/151/127 112/142/118 116/150/126
f 123/134/113 126/135/114 121/137/115 120/151/127
f 126/135/114 101/133/101 97/136/99
f 125/154/130 124/155/131 119/153/129 118/152/128
f 124/155/131 123/134/113 120/151/127 119/153/129
f 129/132/112 102/130/100 101/133/101
f 127/156/132 128/131/111 124/155/131 125/154/130
f 128/131/111 129/132/112 123/134/113 124/155/131
f 131/128/109 130/129/110 128/131/111 127/156/132
f 130/129/110 103/126/102 102/130/100
f 132/127/108 98/157/103 103/126/102
f 105/148/124 106/149/125 48/159/45 47/158/46
f 111/139/117 104/141/104 45/161/47 53/160/48
f 110/138/116 111/139/117 53/160/48 52/162/49
f 109/146/122 110/138/116 52/162/49 51/163/50
f 104/121/104 16/15/15 46/59/51 45/60/47
f 108/144/120 109/146/122 51/163/50 50/164/52
f 107/143/119 108/144/120 50/164/52 49/165/53
f 106/149/125 107/143/119 49/165/53 48/159/45
f 134/166/133 58/64/55 59/65/56 135/167/134
f 135/167/134 59/65/56 55/67/58 133/168/135
f 60/69/60 62/70/61 137/170/137 136/169/136
f 62/70/61 64/73/64 138/171/138 137/170/137
f 55/67/58 60/69/60 136/169/136 133/168/135
f 64/73/64 4/14/14 98/120/103 138/171/138
f 134/166/133 139/172/139 67/76/67 58/64/55
f 135/173/134 154/176/142 150/175/141 147/174/140
f 138/177/138 132/127/108 131/128/109 160/178/143
f 137/179/137 160/178/143 158/181/145 159/180/144
f 136/182/136 159/180/144 155/184/147 157/183/146
f 133/185/135 157/183/146 153/186/148 154/176/142
f 144/187/149 145/189/150 134/188/133 147/174/140
f 145/189/150 139/190/139 134/188/133
f 146/191/151 141/194/154 142/193/153 148/192/152
f 148/192/152 142/193/153 143/195/155 150/175/141
f 113/147/123 105/148/124 140/197/157 149/196/156
f 150/175/141 143/195/155 144/187/149 147/174/140
f 134/188/133 135/173/134 147/174/140
f 149/196/156 140/197/157 141/194/154 146/191/151
f 152/198/158 146/191/151 148/192/152 153/186/148
f 153/186/148 148/192/152 150/175/141 154/176/142
f 118/152/128 113/147/123 149/196/156 151/199/159
f 154/176/142 135/173/134 133/185/135
f 151/199/159 149/196/156 146/191/151 152/198/158
f 155/184/147 152/198/158 153/186/148 157/183/146
f 157/183/146 133/185/135 136/182/136
f 125/154/130 118/152/128 151/199/159 156/200/160
f 156/200/160 151/199/159 152/198/158 155/184/147
f 159/180/144 136/182/136 137/179/137
f 127/156/132 125/154/130 156/200/160 158/181/145
f 158/181/145 156/200/160 155/184/147 159/180/144
f 131/128/109 127/156/132 158/181/145 160/178/143
f 160/178/143 137/179/137 138/177/138
f 132/127/108 138/177/138 98/157/103
f 105/148/124 47/158/46 91/201/89 140/197/157
f 145/189/150 96/203/90 89/202/91 139/190/139
f 144/187/149 95/204/92 96/203/90 145/189/150
f 143/195/155 94/205/93 95/204/92 144/187/149
f 139/172/139 89/110/91 90/111/94 67/76/67
f 142/193/153 93/206/95 94/205/93 143/195/155
f 141/194/154 92/207/96 93/206/95 142/193/153
f 140/197/157 91/201/89 92/207/96 141/194/154
f 161/208/161 169/211/164 181/210/163 170/209/162
f 170/209/162 181/210/163 171/213/166 162/212/165
f 181/210/163 172/215/168 164/214/167 171/213/166
f 169/211/164 163/216/169 172/215/168 181/210/163
f 163/216/169 173/218/171 182/217/170 172/215/168
f 172/215/168 182/217/170 174/219/172 164/214/167
f 182/220/170 175/223/174 168/222/173 174/221/172
f 173/224/171 167/225/175 175/223/174 182/220/170
f 167/225/175 176/227/177 183/226/176 175/223/174
f 175/223/174 183/226/176 177/228/178 168/222/173
f 183/226/176 178/230/180 166/229/179 177/228/178
f 176/227/177 165/231/181 178/230/180 183/226/176
f 165/231/181 179/233/183 184/232/182 178/230/180
f 178/230/180 184/232/182 180/234/184 166/229/179
f 184/235/182 170/209/162 162/212/165 180/236/184
f 179/237/183 161/208/161 170/209/162 184/235/182
f 163/216/169 169/211/164 185/238/185 173/218/171
f 173/224/171 185/239/185 176/227/177 167/225/175
f 185/239/185 179/233/183 165/231/181 176/227/177
f 169/211/164 161/208/161 179/237/183 185/238/185
f 168/222/173 177/228/178 186/240/186 174/221/172
f 174/219/172 186/241/186 171/213/166 164/214/167
f 186/241/186 180/236/184 162/212/165 171/213/166
f 177/228/178 166/229/179 180/234/184 186/240/186
f 187/208/187 195/211/190 207/210/189 196/209/188
f 196/209/188 207/210/189 197/213/192 188/212/191
f 207/210/189 198/215/194 190/214/193 197/213/192
f 195/211/190 189/216/195 198/215/194 207/210/189
f 189/216/195 199/218/197 208/217/196 198/215/194
f 198/215/194 208/217/196 200/219/198 190/214/193
f 208/220/196 201/223/200 194/222/199 200/221/198
f 199/224/197 193/225/201 201/223/200 208/220/196
f 193/225/201 202/227/203 209/226/202 201/223/200
f 201/223/200 209/226/202 203/228/204 194/222/199
f 209/226/202 204/230/206 192/229/205 203/228/204
f 202/227/203 191/231/207 204/230/206 209/226/202
f 191/231/207 205/233/209 210/232/208 204/230/206
f 204/230/206 210/232/208 206/234/210 192/229/205
f 210/235/208 196/209/188 188/212/191 206/236/210
f 205/237/209 187/208/187 196/209/188 210/235/208
f 189/216/195 195/211/190 211/238/211 199/218/197
f 199/224/197 211/239/211 202/227/203 193/225/201
f 211/239/211 205/233/209 191/231/207 202/227/203
f 195/211/190 187/208/187 205/237/209 211/238/211
f 194/222/199 203/228/204 212/240/212 200/221/198
f 200/219/198 212/241/212 197/213/192 190/214/193
f 212/241/212 206/236/210 188/212/191 197/213/192
f 203/228/204 192/229/205 206/234/210 212/240/212
f 213/208/213 221/211/216 233/210/215 222/209/214
f 222/209/214 233/210/215 223/213/218 214/212/217
f 233/210/215 224/215/220 216/214/219 223/213/218
f 221/211/216 215/216/221 224/215/220 233/210/215
f 215/216/221 225/218/223 234/217/222 224/215/220
f 224/215/220 234/217/222 226/219/224 216/214/219
f 234/220/222 227/223/226 220/222/225 226/221/224
f 225/224/223 219/225/227 227/223/226 234/220/222
f 219/225/227 228/227/229 235/226/228 227/223/226
f 227/223/226 235/226/228 229/228/230 220/222/225
f 235/226/228 230/230/232 218/229/231 229/228/230
f 228/227/229 217/231/233 230/230/232 235/226/228
f 217/231/233 231/233/235 236/232/234 230/230/232
f 230/230/232 236/232/234 232/234/236 218/229/231
f 236/235/234 222/209/214 214/212/217 232/236/236
f 231/237/235 213/208/213 222/209/214 236/235/234
f 215/216/221 221/211/216 237/238/237 225/218/223
f 225/224/223 237/239/237 228/227/229 219/225/227
f 237/239/237 231/233/235 217/231/233 228/227/229
f 221/211/216 213/208/213 231/237/235 237/238/237
f 220/222/225 229/228/230 238/240/238 226/221/224
f 226/219/224 238/241/238 223/213/218 216/214/219
f 238/241/238 232/236/236 214/212/217 223/213/218
f 229/228/230 218/229/231 232/234/236 238/240/238
f 239/208/239 247/211/242 259/210/241 248/209/240
f 248/209/240 259/210/241 249/213/244 240/212/243
f 259/210/241 250/215/246 242/214/245 249/213/244
f 247/211/242 241/216/247 250/215/246 259/210/241
f 241/216/247 251/218/249 260/217/248 250/215/246
f 250/215/246 260/217/248 252/219/250 242/214/245
f 260/220/248 253/223/252 246/222/251 252/221/250
f 251/224/249 245/225/253 253/223/252 260/220/248
f 245/225/253 254/227/255 261/226/254 253/223/252
f 253/223/252 261/226/254 255/228/256 246/222/251
f 261/226/254 256/230/258 244/229/257 255/228/256
f 254/227/255 243/231/259 256/230/258 261/226/254
f 243/231/259 257/233/261 262/232/260 256/230/258
f 256/230/258 262/232/260 258/234/262 244/229/257
f 262/235/260 248/209/240 240/212/243 258/236/262
f 257/237/261 239/208/239 248/209/240 262/235/260
f 241/216/247 247/211/242 263/238/263 251/218/249
f 251/224/249 263/239/263 254/227/255 245/225/253
f 263/239/263 257/233/261 243/231/259 254/227/255
f 247/211/242 239/208/239 257/237/261 263/238/263
f 246/222/251 255/228/256 264/240/264 252/221/250
f 252/219/250 264/241/264 249/213/244 242/214/245
f 264/241/264 258/236/262 240/212/243 249/213/244
f 255/228/256 244/229/257 258/234/262 264/240/264
f 265/208/265 273/211/268 285/210/267 274/209/266
f 274/209/266 285/210/267 275/213/270 266/212/269
f 285/210/267 276/215/272 268/214/271 275/213/270
f 273/211/268 267/216/273 276/215/272 285/210/267
f 267/216/273 277/218/275 286/217/274 276/215/272
f 276/215/272 286/217/274 278/219/276 268/214/271
f 286/220/274 279/223/278 272/222/277 278/221/276
f 277/224/275 271/225/279 279/223/278 286/220/274
f 271/225/279 280/227/281 287/226/280 279/223/278
f 279/223/278 287/226/280 281/228/282 272/222/277
f 287/226/280 282/230/284 270/229/283 281/228/282
f 280/227/281 269/231/285 282/230/284 287/226/280
f 269/231/285 283/233/287 288/232/286 282/230/284
f 282/230/284 288/232/286 284/234/288 270/229/283
f 288/235/286 274/209/266 266/212/269 284/236/288
f 283/237/287 265/208/265 274/209/266 288/235/286
f 267/216/273 273/211/268 289/238/289 277/218/275
f 277/224/275 289/239/289 280/227/281 271/225/279
f 289/239/289 283/233/287 269/231/285 280/227/281
f 273/211/268 265/208/265 283/237/287 289/238/289
f 272/222/277 281/228/282 290/240/290 278/221/276
f 278/219/276 290/241/290 275/213/270 268/214/271
f 290/241/290 284/236/288 266/212/269 275/213/270
f 281/228/282 270/229/283 284/234/288 290/240/290
f 291/208/291 299/211/294 311/210/293 300/209/292
f 300/209/292 311/210/293 301/213/296 292/212/295
f 311/210/293 302/215/298 294/214/297 301/213/296
f 299/211/294 293/216/299 302/215/298 311/210/293
f 293/216/299 303/218/301 312/217/300 302/215/298
f 302/215/298 312/217/300 304/219/302 294/214/297
f 312/220/300 305/223/304 298/222/303 304/221/302
f 303/224/301 297/225/305 305/223/304 312/220/300
f 297/225/305 306/227/307 313/226/306 305/223/304
f 305/223/304 313/226/306 307/228/308 298/222/303
f 313/226/306 308/230/310 296/229/309 307/228/308
f 306/227/307 295/231/311 308/230/310 313/226/306
f 295/231/311 309/233/313 314/232/312 308/230/310
f 308/230/310 314/232/312 310/234/314 296/229/309
f 314/235/312 300/209/292 292/212/295 310/236/314
f 309/237/313 291/208/291 300/209/292 314/235/312
f 293/216/299 299/211/294 315/238/315 303/218/301
f 303/224/301 315/239/315 306/227/307 297/225/305
f 315/239/315 309/233/313 295/231/311 306/227/307
f 299/211/294 291/208/291 309/237/313 315/238/315
f 298/222/303 307/228/308 316/240/316 304/221/302
f 304/219/302 316/241/316 301/213/296 294/214/297
f 316/241/316 310/236/314 292/212/295 301/213/296
f 307/228/308 296/229/309 310/234/314 316/240/316
f 317/208/317 325/211/320 337/210/319 326/209/318
f 326/209/318 337/210/319 327/213/322 318/212/321
f 337/210/319 328/215/324 320/214/323 327/213/322
f 325/211/320 319/216/325 328/215/324 337/210/319
f 319/216/325 329/218/327 338/217/326 328/215/324
f 328/215/324 338/217/326 330/219/328 320/214/323
f 338/220/326 331/223/330 324/222/329 330/221/328
f 329/224/327 323/225/331 331/223/330 338/220/326
f 323/225/331 332/227/333 339/226/332 331/223/330
f 331/223/330 339/226/332 333/228/334 324/222/329
f 339/226/332 334/230/336 322/229/335 333/228/334
f 332/227/333 321/231/337 334/230/336 339/226/332
f 321/231/337 335/233/339 340/232/338 334/230/336
f 334/230/336 340/232/338 336/234/340 322/229/335
f 340/235/338 326/209/318 318/212/321 336/236/340
f 335/237/339 317/208/317 326/209/318 340/235/338
f 319/216/325 325/211/320 341/238/341 329/218/327
f 329/224/327 341/239/341 332/227/333 323/225/331
f 341/239/341 335/233/339 321/231/337 332/227/333
f 325/211/320 317/208/317 335/237/339 341/238/341
f 324/222/329 333/228/334 342/240/342 330/221/328
f 330/219/328 342/241/342 327/213/322 320/214/323
f 342/241/342 336/236/340 318/212/321 327/213/322
f 333/228/334 322/229/335 336/234/340 342/240/342
f 343/208/343 351/211/346 363/210/345 352/209/344
f 352/209/344 363/210/345 353/213/348 344/212/347
f 363/210/345 354/215/350 346/214/349 353/213/348
f 351/211/346 345/216/351 354/215/350 363/210/345
f 345/216/351 355/218/353 364/217/352 354/215/350
f 354/215/350 364/217/352 356/219/354 346/214/349
f 364/220/352 357/223/356 350/222/355 356/221/354
f 355/224/353 349/225/357 357/223/356 364/220/352
f 349/225/357 358/227/359 365/226/358 357/223/356
f 357/223/356 365/226/358 359/228/360 350/222/355
f 365/226/358 360/230/362 348/229/361 359/228/360
f 358/227/359 347/231/363 360/230/362 365/226/358
f 347/231/363 361/233/365 366/232/364 360/230/362
f 360/230/362 366/232/364 362/234/366 348/229/361
f 366/235/364 352/209/344 344/212/347 362/236/366
f 361/237/365 343/208/343 352/209/344 366/235/364
f 345/216/351 351/211/346 367/238/367 355/218/353
f 355/224/353 367/239/367 358/227/359 349/225/357
f 367/239/367 361/233/365 347/231/363 358/227/359
f 351/211/346 343/208/343 361/237/365 367/238/367
f 350/222/355 359/228/360 368/240/368 356/221/354
f 356/219/354 368/241/368 353/213/348 346/214/349
f 368/241/368 362/236/366 344/212/347 353/213/348
f 359/228/360 348/229/361 362/234/366 368/240/368
f 369/208/369 377/211/372 389/210/371 378/209/370
f 378/209/370 389/210/371 379/213/374 370/212/373
f 389/210/371 380/215/376 372/214/375 379/213/374
f 377/211/372 371/216/377 380/215/376 389/210/371
f 371/216/377 381/218/379 390/217/378 380/215/376
f 380/215/376 390/217/378 382/219/380 372/214/375
f 390/220/378 383/223/382 376/222/381 382/221/380
f 381/224/379 375/225/383 383/223/382 390/220/378
f 375/225/383 384/227/385 391/226/384 383/223/382
f 383/223/382 391/226/384 385/228/386 376/222/381
f 391/226/384 386/230/388 374/229/387 385/228/386
f 384/227/385 373/231/389 386/230/388 391/226/384
f 373/231/389 387/233/391 392/232/390 386/230/388
f 386/230/388 392/232/390 388/234/392 374/229/387
f 392/235/390 378/209/370 370/212/373 388/236/392
f 387/237/391 369/208/369 378/209/370 392/235/390
f 371/216/377 377/211/372 393/238/393 381/218/379
f 381/224/379 393/239/393 384/227/385 375/225/383
f 393/239/393 387/233/391 373/231/389 384/227/385
f 377/211/372 369/208/369 387/237/391 393/238/393
f 376/222/381 385/228/386 394/240/394 382/221/380
f 382/219/380 394/241/394 379/213/374 372/214/375
f 394/241/394 388/236/392 370/212/373 379/213/374
f 385/228/386 374/229/387 388/234/392 394/240/394
f 395/208/395 403/211/398 415/210/397 404/209/396
f 404/209/396 415/210/397 405/213/400 396/212/399
f 415/210/397 406/215/402 398/214/401 405/213/400
f 403/211/398 397/216/403 406/215/402 415/210/397
f 397/216/403 407/218/405 416/217/404 406/215/402
f 406/215/402 416/217/404 408/219/406 398/214/401
f 416/220/404 409/223/408 402/222/407 408/221/406
f 407/224/405 401/225/409 409/223/408 416/220/404
f 401/225/409 410/227/411 417/226/410 409/223/408
f 409/223/408 417/226/410 411/228/412 402/222/407
f 417/226/410 412/230/414 400/229/413 411/228/412
f 410/227/411 399/231/415 412/230/414 417/226/410
f 399/231/415 413/233/417 418/232/416 412/230/414
f 412/230/414 418/232/416 414/234/418 400/229/413
f 418/235/416 404/209/396 396/212/399 414/236/418
f 413/237/417 395/208/395 404/209/396 418/235/416
f 397/216/403 403/211/398 419/238/419 407/218/405
f 407/224/405 419/239/419 410/227/411 401/225/409
f 419/239/419 413/233/417 399/231/415 410/227/411
f 403/211/398 395/208/395 413/237/417 419/238/419
f 402/222/407 411/228/412 420/240/420 408/221/406
f 408/219/406 420/241/420 405/213/400 398/214/401
f 420/241/420 414/236/418 396/212/399 405/213/400
f 411/228/412 400/229/413 414/234/418 420/240/420
o watermelon.001
v 0.069434 0.018649 -2.168034
v 0.022359 0.229588 -2.140953
v 1.282123 0.007220 -1.971630
v 1.253563 0.376563 -1.923617
v -0.313071 0.006196 -1.843706
v -0.141637 0.010581 -2.034952
v -0.352631 0.079278 -1.837286
v -0.196147 0.157523 -2.018396
v 0.291606 0.289710 -2.191476
v 0.325922 0.024619 -2.224073
v 0.599119 0.335731 -2.169824
v 0.627964 0.015703 -2.210642
v 0.928906 0.365791 -2.078992
v 0.956994 0.009305 -2.125251
v -0.434329 0.003661 -1.672527
v -0.458815 0.012156 -1.665237
v 0.734634 0.024797 -1.051241
v 0.422877 0.022130 -1.227342
v 0.133548 0.016430 -1.379474
v -0.104080 0.010827 -1.501192
v -0.274972 0.006890 -1.589050
v -0.375653 0.004780 -1.641545
v -0.419555 0.003934 -1.664695
v 0.239442 0.017862 -1.557493
v 0.840285 0.023723 -1.228852
v -0.269341 0.007718 -1.820267
v 0.001629 0.015233 -1.678900
v 0.528706 0.021715 -1.405252
v -0.169010 0.011122 -1.767184
v 0.965079 0.020356 -1.438644
v 0.653963 0.019307 -1.615822
v 0.365376 0.018080 -1.769202
v 0.127921 0.019431 -1.891211
v -0.041984 0.015386 -1.980728
v 0.475117 0.017305 -1.953689
v 0.762798 0.016013 -1.798786
v 1.073442 0.016172 -1.620813
v 0.238368 0.022424 -2.076886
v 1.159038 0.012465 -1.764710
v 0.848785 0.013023 -1.943340
v 0.561933 0.016389 -2.099637
v 0.914148 0.010735 -2.053222
v 1.224100 0.009630 -1.874086
v 1.266748 0.007842 -1.945783
v -0.443507 0.012432 -1.657098
v -0.458815 0.012156 -1.665237
v 0.725467 0.033575 -1.035830
v 0.413707 0.030906 -1.211927
v 0.124376 0.025205 -1.364054
v -0.113255 0.019600 -1.485768
v -0.284149 0.015662 -1.573623
v -0.384831 0.013551 -1.626117
v -0.428733 0.012705 -1.649266
v 2.033504 0.018649 -0.999716
v 2.032175 0.229588 -0.945424
v 1.931062 0.006196 -0.508794
v 2.017298 0.010581 -0.750720
v 1.944301 0.079278 -0.470967
v 2.028766 0.157523 -0.694918
v 1.948066 0.289710 -1.206139
v 1.960332 0.024619 -1.251851
v 1.782270 0.335731 -1.466032
v 1.804371 0.015703 -1.510862
v 1.545051 0.365791 -1.712481
v 1.572295 0.009305 -1.759242
v 1.838512 0.003661 -0.320538
v 1.843792 0.012156 -0.295542
v 1.038179 0.022130 -0.861333
v 1.309955 0.016430 -0.679694
v 1.530330 0.010827 -0.528970
v 1.689098 0.006890 -0.420732
v 1.783281 0.004780 -0.357313
v 1.824578 0.003934 -0.329783
v 1.415849 0.017862 -0.857713
v 1.889593 0.007718 -0.536035
v 1.636039 0.015233 -0.706679
v 1.144007 0.021715 -1.039243
v 1.795061 0.011122 -0.598866
v 1.269264 0.019307 -1.249813
v 1.541783 0.018080 -1.069422
v 1.762331 0.019431 -0.918990
v 1.922086 0.015386 -0.812410
v 1.651524 0.017305 -1.253909
v 1.378099 0.016013 -1.432777
v 1.872779 0.022424 -1.104665
v 1.464086 0.013023 -1.577331
v 1.738340 0.016389 -1.399856
v 1.529449 0.010735 -1.687213
v 1.829334 0.012432 -0.305110
v 1.843792 0.012156 -0.295542
v 1.029009 0.030906 -0.845918
v 1.300783 0.025205 -0.664274
v 1.521155 0.019600 -0.513547
v 1.679922 0.015662 -0.405305
v 1.774104 0.013551 -0.341885
v 1.815400 0.012705 -0.314354
v 0.000125 0.426950 -2.051518
v 1.163512 0.705968 -1.772231
v -0.338032 0.153242 -1.801744
v -0.190843 0.300462 -1.952230
v 0.240235 0.529403 -2.080025
v 0.525045 0.622004 -2.037624
v 0.842491 0.683848 -1.932760
v -0.438834 0.030199 -1.664954
v 0.730130 0.051335 -1.043668
v 0.418372 0.048668 -1.219769
v 0.129044 0.042968 -1.371901
v -0.108585 0.037365 -1.493619
v -0.279477 0.033428 -1.581477
v -0.380158 0.031318 -1.633972
v -0.424060 0.030472 -1.657122
v 0.214345 0.165714 -1.515302
v 0.814469 0.175805 -1.185452
v -0.294061 0.153346 -1.778710
v -0.022523 0.157511 -1.638299
v 0.503057 0.172817 -1.362133
v -0.193265 0.154010 -1.726408
v 0.913450 0.324509 -1.351849
v 0.602701 0.321294 -1.529646
v 0.315335 0.312878 -1.685077
v 0.079971 0.301905 -1.810602
v -0.090163 0.299209 -1.899735
v 0.403044 0.441893 -1.832526
v 0.688914 0.451268 -1.674579
v 0.999012 0.454642 -1.495689
v 0.169399 0.428727 -1.960941
v 1.066475 0.557758 -1.609102
v 0.756909 0.554267 -1.788887
v 0.472338 0.544200 -1.949017
v 0.808592 0.632573 -1.875771
v 1.117749 0.636151 -1.695298
v 1.151381 0.687482 -1.751837
v 1.964196 0.426950 -0.883200
v 1.906101 0.153242 -0.466832
v 1.968091 0.300462 -0.667998
v 1.874646 0.529403 -1.107803
v 1.701452 0.622004 -1.337844
v 1.457793 0.683848 -1.566751
v 1.834007 0.030199 -0.312966
v 1.033674 0.048668 -0.853760
v 1.305450 0.042968 -0.672121
v 1.525826 0.037365 -0.521398
v 1.684594 0.033428 -0.413159
v 1.778777 0.031318 -0.349740
v 1.820073 0.030472 -0.322210
v 1.390752 0.165714 -0.815522
v 1.864873 0.153346 -0.494478
v 1.611888 0.157511 -0.666078
v 1.118358 0.172817 -0.996123
v 1.770805 0.154010 -0.558090
v 1.218002 0.321294 -1.163637
v 1.491742 0.312878 -0.985297
v 1.714382 0.301905 -0.838381
v 1.873908 0.299209 -0.731417
v 1.579451 0.441893 -1.132746
v 1.304215 0.451268 -1.308570
v 1.803810 0.428727 -0.988720
v 1.372211 0.554267 -1.422878
v 1.648745 0.544200 -1.249237
v 1.423893 0.632573 -1.509762
v 0.911076 0.438249 -1.592131
v 0.896126 0.402615 -1.535784
v 0.849586 0.440735 -1.600003
v 0.851329 0.404434 -1.541540
v 0.909409 0.473959 -1.567596
v 0.894762 0.431767 -1.515749
v 0.847919 0.476445 -1.575468
v 0.849964 0.433585 -1.521504
v 0.881263 0.439214 -1.605280
v 0.909588 0.416642 -1.565650
v 0.873141 0.396704 -1.534356
v 0.844800 0.419267 -1.573958
v 0.841003 0.463227 -1.594849
v 0.846740 0.414838 -1.525885
v 0.842952 0.458804 -1.546789
v 0.879168 0.484095 -1.574445
v 0.871540 0.430899 -1.510854
v 0.907740 0.456179 -1.538481
v 0.919393 0.460060 -1.584817
v 0.897930 0.412758 -1.519306
v 0.877555 0.410505 -1.574949
v 0.831648 0.439525 -1.561926
v 0.875009 0.464956 -1.537531
v 0.920875 0.435910 -1.550484
v 0.881706 0.470683 -1.602556
v 0.870849 0.404772 -1.509909
v 0.397496 0.225310 -1.569579
v 0.397947 0.205395 -1.515698
v 0.345662 0.219801 -1.564986
v 0.360152 0.201364 -1.512311
v 0.395197 0.258191 -1.555348
v 0.396071 0.232238 -1.504080
v 0.343363 0.252681 -1.550756
v 0.358275 0.228208 -1.500693
v 0.371037 0.220768 -1.574813
v 0.402865 0.212606 -1.544499
v 0.380053 0.198625 -1.509313
v 0.348227 0.206789 -1.539631
v 0.336546 0.237914 -1.562930
v 0.357353 0.212064 -1.500557
v 0.345682 0.243195 -1.523874
v 0.368148 0.262093 -1.556928
v 0.377851 0.230113 -1.495685
v 0.400320 0.249012 -1.528742
v 0.402619 0.244934 -1.568776
v 0.400546 0.216671 -1.504432
v 0.376033 0.202836 -1.545049
v 0.336645 0.223892 -1.530827
v 0.372528 0.252975 -1.523348
v 0.411893 0.231903 -1.537531
v 0.367826 0.246534 -1.577820
v 0.380708 0.209259 -1.490532
v 1.503291 0.164337 -0.800746
v 1.448848 0.146326 -0.781862
v 1.478306 0.167782 -0.849758
v 1.430681 0.148863 -0.817646
v 1.492289 0.199335 -0.792699
v 1.439868 0.174900 -0.775297
v 1.467306 0.202781 -0.841715
v 1.421703 0.177438 -0.811083
v 1.497692 0.163941 -0.828999
v 1.479530 0.151523 -0.787463
v 1.435057 0.142746 -0.797604
v 1.453231 0.155172 -0.839160
v 1.474846 0.188125 -0.855172
v 1.419415 0.160956 -0.814205
v 1.441054 0.193925 -0.830257
v 1.483866 0.207927 -0.818887
v 1.424525 0.176263 -0.789905
v 1.467350 0.190274 -0.778556
v 1.506704 0.183738 -0.792702
v 1.440168 0.158053 -0.773304
v 1.468680 0.146040 -0.814996
v 1.442182 0.175236 -0.844458
v 1.451908 0.199410 -0.802732
v 1.478400 0.170210 -0.773258
v 1.502280 0.190918 -0.829634
v 1.418279 0.154514 -0.788044
v 0.123648 0.121981 -1.562870
v 0.165533 0.115274 -1.515138
v 0.088494 0.091042 -1.532091
v 0.139912 0.092725 -1.492702
v 0.110748 0.154125 -1.545014
v 0.154998 0.141514 -1.500554
v 0.075594 0.123186 -1.514235
v 0.129377 0.118965 -1.478119
v 0.102497 0.102989 -1.554384
v 0.149201 0.118357 -1.543690
v 0.158879 0.101134 -1.500594
v 0.112153 0.085752 -1.511252
v 0.071970 0.103460 -1.523523
v 0.138056 0.103637 -1.479214
v 0.097868 0.121341 -1.491477
v 0.086284 0.143388 -1.531943
v 0.146520 0.131912 -1.483486
v 0.134915 0.153945 -1.523915
v 0.116784 0.142901 -1.562759
v 0.167334 0.129404 -1.504852
v 0.133381 0.095348 -1.531216
v 0.098017 0.097393 -1.495236
v 0.113706 0.144361 -1.503982
v 0.149039 0.142296 -1.539910
v 0.083400 0.124451 -1.552819
v 0.163696 0.115265 -1.482397
v 0.717595 0.016284 -1.773223
v 0.715484 0.010812 -1.711797
v 0.661857 0.014028 -1.770584
v 0.674869 0.009169 -1.709877
v 0.716495 0.054829 -1.767425
v 0.714596 0.042287 -1.707079
v 0.660758 0.052573 -1.764786
v 0.673981 0.040643 -1.705159
v 0.689269 0.011166 -1.779297
v 0.721925 0.009924 -1.743332
v 0.695864 0.006316 -1.704616
v 0.663191 0.007547 -1.740553
v 0.653035 0.033940 -1.773946
v 0.672134 0.023834 -1.700746
v 0.661981 0.050229 -1.734144
v 0.687886 0.059610 -1.772008
v 0.694824 0.043236 -1.699084
v 0.720714 0.052606 -1.736923
v 0.724091 0.036817 -1.777311
v 0.718545 0.025712 -1.702940
v 0.692796 0.000692 -1.743168
v 0.651502 0.028436 -1.736813
v 0.691129 0.059475 -1.734342
v 0.732390 0.031709 -1.740640
v 0.687306 0.037393 -1.789580
v 0.696616 0.022772 -1.687924
v 1.287585 0.007336 -1.384853
v 1.250437 0.000945 -1.351790
v 1.253190 0.015281 -1.413784
v 1.225387 0.006743 -1.372895
v 1.287473 0.037921 -1.376492
v 1.250352 0.025919 -1.344974
v 1.253080 0.045867 -1.405427
v 1.225302 0.031718 -1.366081
v 1.273965 0.008510 -1.404368
v 1.272280 0.000344 -1.366413
v 1.234362 0.000558 -1.358964
v 1.236045 0.008722 -1.396915
v 1.251960 0.032788 -1.417539
v 1.219998 0.018517 -1.367024
v 1.235926 0.042591 -1.387668
v 1.273823 0.046950 -1.393861
v 1.234263 0.029853 -1.350972
v 1.272159 0.034212 -1.357162
v 1.295809 0.022660 -1.380659
v 1.248622 0.011890 -1.342903
v 1.254191 -0.001851 -1.383419
v 1.229147 0.027234 -1.398038
v 1.254026 0.044793 -1.370682
v 1.279049 0.015695 -1.356027
v 1.281359 0.030092 -1.407440
v 1.226841 0.012839 -1.346631
v 1.446219 -0.000523 -0.865170
v 1.384755 0.010525 -0.880700
v 1.452738 0.022425 -0.915855
v 1.389508 0.027249 -0.917641
v 1.446293 0.034867 -0.848921
v 1.384809 0.039414 -0.867426
v 1.452811 0.057814 -0.899606
v 1.389562 0.056138 -0.904366
v 1.456311 0.005899 -0.891503
v 1.414861 -0.000695 -0.869749
v 1.380297 0.016903 -0.901435
v 1.421732 0.023488 -0.923164
v 1.460498 0.042756 -0.913576
v 1.383040 0.043399 -0.914748
v 1.421809 0.062670 -0.905166
v 1.456404 0.050378 -0.871082
v 1.380360 0.050789 -0.885862
v 1.414938 0.038487 -0.851752
v 1.452188 0.013503 -0.848962
v 1.377608 0.024287 -0.872534
v 1.418292 0.004013 -0.899868
v 1.423060 0.047635 -0.924227
v 1.418398 0.057975 -0.875081
v 1.413597 0.014330 -0.850664
v 1.470701 0.027065 -0.878970
v 1.365985 0.034920 -0.895972
v 0.319679 0.015268 -1.573582
v 0.330880 0.011925 -1.519953
v 0.272406 0.009124 -1.559331
v 0.296412 0.007434 -1.509535
v 0.316999 0.048920 -1.568723
v 0.328695 0.039400 -1.515991
v 0.269726 0.042775 -1.554470
v 0.294226 0.034909 -1.505572
v 0.294436 0.008492 -1.572707
v 0.330027 0.010832 -1.548608
v 0.315790 0.006689 -1.509470
v 0.280198 0.004348 -1.533566
v 0.262612 0.025717 -1.560555
v 0.294811 0.020234 -1.501186
v 0.277232 0.041609 -1.528188
v 0.291068 0.050786 -1.566598
v 0.313227 0.038917 -1.504821
v 0.327062 0.048094 -1.543231
v 0.322873 0.033549 -1.578717
v 0.334201 0.025368 -1.513096
v 0.305679 0.000567 -1.542113
v 0.269313 0.021753 -1.528033
v 0.301595 0.051883 -1.534706
v 0.337938 0.030683 -1.548749
v 0.288648 0.030929 -1.581441
v 0.318605 0.021509 -1.495344
v 1.038301 0.003147 -1.595042
v 1.007556 -0.000186 -1.541906
v 0.987186 0.008122 -1.617027
v 0.970313 0.003442 -1.557935
v 1.039493 0.041669 -1.589103
v 1.008536 0.031268 -1.537070
v 0.988379 0.046644 -1.611089
v 0.971294 0.034897 -1.553100
v 1.015220 0.001520 -1.612901
v 1.027651 -0.002824 -1.566983
v 0.986230 -0.001918 -1.544251
v 0.973792 0.002421 -1.590157
v 0.983372 0.028888 -1.623155
v 0.965522 0.018600 -1.550567
v 0.975117 0.045077 -1.583591
v 1.016717 0.049934 -1.605435
v 0.987381 0.034978 -1.538581
v 1.028975 0.039832 -1.560416
v 1.048534 0.022546 -1.595129
v 1.008079 0.014453 -1.532248
v 1.000482 -0.008240 -1.579827
v 0.964289 0.024733 -1.591232
v 1.002307 0.050507 -1.570783
v 1.038464 0.017510 -1.559316
v 1.021469 0.027462 -1.621947
v 0.981296 0.014789 -1.528622
v 1.129767 0.327864 -1.297194
v 1.088472 0.296050 -1.263848
v 1.085179 0.338999 -1.329120
v 1.055990 0.304171 -1.287129
v 1.121662 0.358750 -1.274893
v 1.081854 0.321265 -1.245640
v 1.077075 0.369885 -1.306819
v 1.049372 0.329385 -1.268920
v 1.112302 0.333432 -1.319937
v 1.114152 0.307832 -1.279723
v 1.069023 0.293968 -1.273159
v 1.067174 0.319569 -1.313377
v 1.078771 0.359927 -1.326244
v 1.046578 0.313393 -1.275775
v 1.058200 0.353767 -1.288683
v 1.102116 0.372250 -1.291909
v 1.061260 0.323544 -1.251801
v 1.105178 0.342029 -1.255029
v 1.135614 0.345734 -1.285547
v 1.083695 0.304113 -1.249169
v 1.092367 0.307258 -1.301226
v 1.053819 0.338877 -1.307364
v 1.080007 0.354355 -1.267218
v 1.118517 0.322711 -1.261016
v 1.115139 0.361154 -1.314111
v 1.057194 0.300432 -1.254264
vn -0.4302 -0.8106 -0.3973
vn -0.3939 -0.7302 -0.5583
vn -0.6757 0.0940 -0.7312
vn -0.8321 0.0169 -0.5544
vn -0.2401 -0.6594 -0.7125
vn -0.3954 0.1894 -0.8988
vn -0.1020 0.2569 -0.9610
vn -0.0598 -0.6263 -0.7773
vn 0.1066 -0.6346 -0.7655
vn 0.1301 0.2924 -0.9474
vn 0.2567 -0.6392 -0.7250
vn 0.3177 0.3097 -0.8962
vn 0.3931 -0.6393 -0.6609
vn 0.4852 0.3151 -0.8157
vn -0.8914 -0.2577 0.3728
vn -0.4130 -0.9069 -0.0835
vn 0.0312 -0.9995 0.0024
vn 0.0302 -0.9995 -0.0022
vn 0.0330 -0.9995 0.0019
vn -0.0157 -0.9998 0.0105
vn -0.0100 -0.9998 0.0169
vn -0.0102 -0.9998 0.0172
vn -0.0193 -0.9998 -0.0042
vn -0.0127 -0.9999 0.0108
vn 0.0050 -1.0000 -0.0076
vn -0.0111 -0.9999 -0.0030
vn 0.0123 -0.9999 -0.0060
vn -0.0837 -0.9754 0.2041
vn -0.0873 -0.9752 0.2036
vn 0.0110 -0.9999 0.0004
vn 0.0200 -0.9998 -0.0058
vn -0.0828 -0.9757 0.2029
vn -0.0875 -0.9750 0.2045
vn -0.0818 -0.9758 0.2030
vn -0.0040 -1.0000 0.0067
vn 0.0049 -1.0000 0.0080
vn -0.0977 -0.9744 0.2023
vn -0.1148 -0.9745 0.1930
vn -0.0005 -1.0000 -0.0004
vn -0.0075 -0.9999 0.0127
vn -0.0024 -0.9999 0.0112
vn -0.0096 -0.9998 0.0161
vn -0.0085 -0.9999 0.0120
vn -0.4506 -0.3149 0.8353
vn -0.4852 -0.3151 0.8157
vn -0.4406 -0.3147 0.8407
vn -0.4390 -0.3147 0.8416
vn -0.4359 -0.3146 0.8432
vn -0.4310 -0.3145 0.8457
vn -0.4412 -0.3147 0.8404
vn -0.4276 -0.3144 0.8475
vn -0.4318 -0.3145 0.8454
vn 0.5545 -0.8106 0.1884
vn 0.8843 0.0169 0.4666
vn 0.9650 0.0940 0.2448
vn 0.6786 -0.7302 0.0797
vn 0.9785 0.1894 -0.0815
vn 0.7407 -0.6594 -0.1290
vn 0.8932 0.2569 -0.3690
vn 0.7704 0.2924 -0.5665
vn 0.6218 -0.6346 -0.4590
vn 0.7116 -0.6263 -0.3184
vn 0.6359 0.3097 -0.7069
vn 0.5145 -0.6392 -0.5716
vn 0.2705 -0.9069 0.3230
vn 0.0978 -0.2577 0.9613
vn -0.0175 -0.9995 -0.0281
vn -0.0125 -0.9995 -0.0276
vn -0.0170 -0.9995 -0.0263
vn -0.0017 -0.9998 0.0188
vn -0.0035 -0.9999 0.0163
vn 0.0129 -0.9998 0.0149
vn 0.0080 -0.9999 0.0083
vn 0.0043 -1.0000 -0.0080
vn -0.0006 -0.9999 -0.0136
vn -0.1394 -0.9754 0.1710
vn -0.1372 -0.9752 0.1739
vn -0.0056 -0.9999 -0.0095
vn -0.1379 -0.9750 0.1745
vn -0.1388 -0.9757 0.1696
vn -0.0044 -0.9998 -0.0204
vn -0.1394 -0.9758 0.1687
vn -0.1312 -0.9744 0.1824
vn -0.0094 -1.0000 -0.0005
vn 0.0006 -1.0000 0.0003
vn -0.0087 -0.9999 0.0075
vn -0.0065 -0.9999 0.0132
vn -0.5190 -0.3149 0.7947
vn -0.5300 -0.3147 0.7875
vn -0.5285 -0.3147 0.7885
vn -0.5330 -0.3146 0.7855
vn -0.5375 -0.3145 0.7824
vn -0.5280 -0.3147 0.7888
vn -0.5407 -0.3144 0.7803
vn -0.5368 -0.3145 0.7829
vn -0.6904 0.7223 0.0401
vn -0.6454 0.7517 -0.1354
vn -0.4914 0.8212 -0.2899
vn -0.1598 0.9346 -0.3177
vn -0.3161 0.8832 -0.3465
vn -0.0153 0.9634 -0.2676
vn 0.1195 0.9723 -0.2010
vn -0.6761 0.6435 0.3589
vn -0.2741 0.8101 0.5183
vn -0.2772 0.8114 0.5145
vn -0.2758 0.8093 0.5186
vn -0.3139 0.7893 0.5277
vn -0.3138 0.7895 0.5275
vn -0.3197 0.7911 0.5215
vn -0.3168 0.7918 0.5221
vn -0.3244 0.7975 0.5087
vn -0.3165 0.7995 0.5105
vn -0.3017 0.8068 0.5080
vn -0.2946 0.8082 0.5100
vn -0.3598 0.6511 0.6682
vn -0.3632 0.6501 0.6674
vn -0.2953 0.8045 0.5153
vn -0.3633 0.6495 0.6680
vn -0.3591 0.6523 0.6675
vn -0.2872 0.8104 0.5107
vn -0.3582 0.6526 0.6677
vn -0.3090 0.7967 0.5194
vn -0.3900 0.6466 0.6556
vn -0.3729 0.6470 0.6650
vn -0.3004 0.7987 0.5213
vn -0.3063 0.8014 0.5137
vn -0.3118 0.7925 0.5242
vn -0.3071 0.7948 0.5234
vn -0.3134 0.7900 0.5269
vn -0.3128 0.7925 0.5235
vn 0.2943 0.7223 0.6258
vn 0.4270 0.7517 0.5026
vn 0.4893 0.8212 0.2935
vn 0.4554 0.8832 0.1124
vn 0.3554 0.9346 -0.0112
vn 0.2425 0.9634 -0.1143
vn 0.0073 0.6435 0.7654
vn -0.3241 0.8093 0.4899
vn -0.3199 0.8114 0.4892
vn -0.3246 0.8101 0.4883
vn -0.3057 0.7911 0.5298
vn -0.2922 0.7975 0.5278
vn -0.3076 0.7918 0.5276
vn -0.3024 0.8068 0.5076
vn -0.2975 0.7995 0.5218
vn -0.3075 0.8082 0.5023
vn -0.4155 0.6511 0.6351
vn -0.4131 0.6501 0.6377
vn -0.3119 0.8045 0.5055
vn -0.3117 0.8104 0.4962
vn -0.4151 0.6523 0.6341
vn -0.4136 0.6495 0.6380
vn -0.4158 0.6526 0.6334
vn -0.3148 0.7987 0.5128
vn -0.4064 0.6470 0.6451
vn -0.3052 0.8014 0.5144
vn -0.3134 0.7948 0.5196
vn -0.3107 0.7925 0.5247
vn -0.6365 0.3558 0.6843
vn -0.6572 0.7004 0.2785
vn -0.0308 0.8592 0.5108
vn -0.1038 0.3338 0.9369
vn -0.5190 0.8519 -0.0695
vn 0.0451 0.9974 -0.0556
vn 0.5757 0.8162 0.0483
vn 0.6203 0.6684 0.4104
vn 0.4856 0.3270 0.8107
vn 0.9985 0.0535 -0.0087
vn 0.7108 -0.3777 0.5934
vn 0.7849 0.3774 -0.4915
vn 0.6271 -0.2870 -0.7241
vn 0.6799 -0.5703 -0.4610
vn 0.5434 -0.8395 -0.0047
vn 0.0501 -0.7697 -0.6365
vn -0.0388 -0.9992 0.0067
vn 0.1078 -0.2868 -0.9519
vn -0.4620 -0.2600 -0.8479
vn -0.5950 -0.5409 -0.5945
vn -0.5812 -0.8038 -0.1267
vn -0.9711 0.1028 -0.2152
vn -0.8473 -0.3294 0.4166
vn -0.6294 0.4217 -0.6527
vn -0.1207 -0.5690 0.8134
vn 0.1171 0.5702 -0.8131
vn -0.5461 0.4288 0.7196
vn -0.6935 0.6703 0.2641
vn -0.0714 0.9419 0.3282
vn 0.0209 0.5206 0.8535
vn -0.6454 0.7540 -0.1222
vn -0.1261 0.9599 -0.2506
vn 0.4350 0.8716 -0.2261
vn 0.5686 0.8107 0.1395
vn 0.5635 0.5531 0.6136
vn 0.9615 0.1628 -0.2214
vn 0.8555 -0.1554 0.4939
vn 0.6125 0.3499 -0.7088
vn 0.5193 -0.3732 -0.7688
vn 0.6636 -0.5828 -0.4690
vn 0.6535 -0.7556 0.0437
vn 0.0521 -0.8820 -0.4684
vn 0.1225 -0.9712 0.2042
vn -0.0281 -0.4796 -0.8770
vn -0.5593 -0.4940 -0.6657
vn -0.5977 -0.7239 -0.3445
vn -0.4571 -0.8765 0.1509
vn -0.9980 -0.0565 -0.0292
vn -0.6955 -0.3261 0.6403
vn -0.7939 0.1950 -0.5759
vn 0.1246 -0.3878 0.9133
vn -0.1267 0.3879 -0.9130
vn -0.8188 0.5483 -0.1704
vn -0.4257 0.7882 -0.4445
vn -0.2305 0.9554 0.1847
vn -0.7267 0.5511 0.4101
vn -0.0420 0.8446 -0.5338
vn 0.2868 0.9547 -0.0792
vn 0.4586 0.7775 0.4304
vn 0.1626 0.7129 0.6821
vn -0.3056 0.4828 0.8207
vn 0.5721 -0.0086 0.8202
vn -0.1626 -0.2703 0.9489
vn 0.9160 0.2100 0.3418
vn 0.8605 -0.4910 0.1358
vn 0.6137 -0.7065 0.3525
vn 0.1172 -0.8508 0.5122
vn 0.3595 -0.9001 -0.2463
vn -0.2459 -0.9675 0.0585
vn 0.7508 -0.5110 -0.4184
vn 0.3619 -0.4285 -0.8279
vn 0.0261 -0.6329 -0.7738
vn -0.3970 -0.7828 -0.4791
vn -0.3420 0.1074 -0.9336
vn -0.8805 -0.1764 -0.4400
vn 0.2663 0.2955 -0.9175
vn -0.8405 -0.3588 0.4060
vn 0.8403 0.3591 -0.4061
vn -0.2689 0.2306 0.9352
vn -0.6985 0.2788 0.6591
vn -0.3698 0.8315 0.4146
vn 0.1470 0.6129 0.7764
vn -0.8985 0.3040 0.3166
vn -0.6914 0.7204 -0.0549
vn -0.2309 0.9158 -0.3287
vn 0.0549 0.9940 -0.0950
vn 0.4046 0.8686 0.2860
vn 0.4839 0.5654 -0.6679
vn 0.9238 0.3817 -0.0307
vn -0.0706 0.4648 -0.8826
vn 0.2007 -0.2041 -0.9582
vn 0.5368 -0.2576 -0.8034
vn 0.8678 -0.3166 -0.3829
vn 0.2627 -0.8141 -0.5179
vn 0.6738 -0.7387 0.0174
vn -0.1821 -0.5863 -0.7893
vn -0.4548 -0.8290 -0.3253
vn -0.2123 -0.9757 -0.0538
vn 0.1865 -0.9433 0.2747
vn -0.6805 -0.5442 0.4907
vn -0.0252 -0.4957 0.8681
vn -0.9391 -0.3385 -0.0600
vn 0.7159 -0.1028 0.6906
vn -0.7214 0.0999 -0.6852
vn -0.5564 0.6162 0.5574
vn -0.6709 0.7398 0.0520
vn -0.0370 0.9970 0.0684
vn 0.0073 0.7205 0.6934
vn -0.6027 0.7204 -0.3432
vn -0.0608 0.8651 -0.4979
vn 0.4926 0.7598 -0.4244
vn 0.6065 0.7933 -0.0528
vn 0.5706 0.6683 0.4773
vn 0.9749 0.0608 -0.2141
vn 0.8273 -0.0582 0.5588
vn 0.6597 0.1301 -0.7402
vn 0.5355 -0.5732 -0.6203
vn 0.6539 -0.7056 -0.2730
vn 0.6147 -0.7418 0.2681
vn 0.0283 -0.9747 -0.2215
vn 0.0598 -0.8887 0.4545
vn -0.0107 -0.6859 -0.7277
vn -0.5610 -0.6248 -0.5430
vn -0.6242 -0.7627 -0.1694
vn -0.5119 -0.7842 0.3506
vn -0.9982 -0.0212 -0.0556
vn -0.7370 -0.1214 0.6649
vn -0.7613 0.0733 -0.6442
vn 0.0603 -0.1458 0.9875
vn -0.0648 0.1449 -0.9873
vn -0.7044 0.6958 0.1401
vn -0.4145 0.8650 -0.2827
vn 0.0470 0.9762 0.2119
vn -0.3847 0.6651 0.6400
vn -0.0947 0.8475 -0.5222
vn 0.4057 0.8816 -0.2411
vn 0.7333 0.6581 0.1707
vn 0.5551 0.6448 0.5255
vn 0.1473 0.5029 0.8517
vn 0.8395 -0.1409 0.5248
vn 0.1852 -0.2603 0.9476
vn 0.9978 0.0206 -0.0624
vn 0.7386 -0.6460 -0.1927
vn 0.5624 -0.8184 0.1180
vn 0.1533 -0.8681 0.4720
vn 0.0553 -0.9443 -0.3245
vn -0.3794 -0.9023 0.2047
vn 0.4109 -0.6288 -0.6602
vn -0.0888 -0.4595 -0.8837
vn -0.4068 -0.5992 -0.6895
vn -0.6988 -0.6737 -0.2405
vn -0.6594 0.1969 -0.7256
vn -0.9990 0.0081 -0.0436
vn -0.0755 0.2640 -0.9616
vn -0.6565 -0.2025 0.7267
vn 0.6564 0.2027 -0.7266
vn -0.3174 0.9105 -0.2650
vn 0.2180 0.9447 -0.2449
vn 0.0761 0.9043 0.4202
vn -0.5697 0.7750 0.2734
vn 0.5603 0.8137 -0.1547
vn 0.6092 0.6871 0.3960
vn 0.3888 0.3692 0.8441
vn -0.0001 0.4237 0.9058
vn -0.4943 0.4396 0.7499
vn -0.0351 -0.4160 0.9087
vn -0.7274 -0.2841 0.6246
vn 0.5809 -0.3394 0.7398
vn 0.3858 -0.8808 0.2744
vn -0.0022 -0.9616 0.2743
vn -0.4958 -0.8533 0.1613
vn 0.0735 -0.9120 -0.4035
vn -0.5725 -0.7141 -0.4028
vn 0.6067 -0.7519 -0.2579
vn 0.5596 -0.4186 -0.7153
vn 0.2167 -0.4356 -0.8737
vn -0.3199 -0.3965 -0.8605
vn 0.2984 0.3969 -0.8680
vn -0.4939 0.3621 -0.7906
vn 0.7940 0.2517 -0.5534
vn -0.9917 0.0552 -0.1165
vn 0.9906 -0.0581 0.1235
vn -0.4599 0.5900 0.6637
vn -0.6999 0.6860 0.1988
vn -0.1090 0.9919 0.0656
vn 0.1062 0.7422 0.6617
vn -0.7243 0.6609 -0.1966
vn -0.2540 0.8439 -0.4726
vn 0.3062 0.7900 -0.5311
vn 0.5011 0.8422 -0.1988
vn 0.6007 0.7315 0.3226
vn 0.8897 0.1350 -0.4362
vn 0.9368 0.0276 0.3488
vn 0.4524 0.1628 -0.8768
vn 0.4220 -0.5516 -0.7195
vn 0.6295 -0.6608 -0.4088
vn 0.7198 -0.6834 0.1222
vn 0.0626 -0.9756 -0.2103
vn 0.2446 -0.8677 0.4327
vn -0.1207 -0.7103 -0.6935
vn -0.6112 -0.6897 -0.3882
vn -0.5729 -0.8196 -0.0119
vn -0.3399 -0.8173 0.4653
vn -0.9781 -0.1055 0.1793
vn -0.5461 -0.1624 0.8218
vn -0.8942 -0.0094 -0.4475
vn 0.3056 -0.1102 0.9458
vn -0.3092 0.1091 -0.9447
vn -0.6632 0.6982 0.2697
vn -0.5199 0.8208 -0.2367
vn 0.0635 0.9950 0.0773
vn -0.2077 0.7307 0.6503
vn -0.2859 0.7793 -0.5577
vn 0.2743 0.8515 -0.4470
vn 0.7203 0.6807 -0.1333
vn 0.6583 0.7076 0.2567
vn 0.3737 0.6000 0.7074
vn 0.9641 -0.0696 0.2562
vn 0.4727 -0.1475 0.8688
vn 0.9315 0.0260 -0.3627
vn 0.6779 -0.6545 -0.3347
vn 0.6099 -0.7919 0.0314
vn 0.3282 -0.8047 0.4947
vn -0.0010 -0.9758 -0.2187
vn -0.2592 -0.8760 0.4066
vn 0.2245 -0.6965 -0.6815
vn -0.3300 -0.5594 -0.7603
vn -0.5693 -0.6797 -0.4625
vn -0.7080 -0.7038 0.0577
vn -0.8557 0.1045 -0.5068
vn -0.9656 -0.0091 0.2599
vn -0.3729 0.1517 -0.9154
vn -0.4003 -0.1262 0.9076
vn 0.3993 0.1256 -0.9082
vn -0.8394 0.4278 0.3353
vn -0.6141 0.7892 0.0100
vn -0.1755 0.8271 0.5340
vn -0.5035 0.3021 0.8095
vn -0.3103 0.9278 -0.2070
vn 0.1803 0.9794 0.0909
vn 0.5683 0.7078 0.4196
vn 0.4094 0.5328 0.7406
vn 0.0592 0.2022 0.9775
vn 0.8674 -0.1194 0.4831
vn 0.2751 -0.5170 0.8106
vn 0.9647 0.2633 -0.0072
vn 0.8588 -0.3578 -0.3666
vn 0.7394 -0.6581 -0.1422
vn 0.3681 -0.9167 0.1555
vn 0.2626 -0.7362 -0.6238
vn -0.1519 -0.9798 -0.1302
vn 0.5193 -0.2567 -0.8151
vn -0.0131 -0.1388 -0.9902
vn -0.2809 -0.4023 -0.8713
vn -0.5333 -0.6909 -0.4882
vn -0.7126 0.2780 -0.6441
vn -0.9758 -0.2026 -0.0824
vn -0.1711 0.5490 -0.8182
vn -0.5651 -0.5792 0.5875
vn 0.5650 0.5803 -0.5865
vt 0.149181 0.722356
vt 0.116684 0.674388
vt 0.185715 0.678755
vt 0.186673 0.724698
vt 0.090312 0.628139
vt 0.184741 0.632535
vt 0.183703 0.583316
vt 0.068338 0.580092
vt 0.045031 0.525296
vt 0.182557 0.528961
vt 0.029297 0.464006
vt 0.181298 0.469264
vt 0.023268 0.399776
vt 0.179979 0.406756
vt 0.186640 0.762345
vt 0.177590 0.761669
vt 0.805840 0.966470
vt 0.742762 0.966440
vt 0.742666 0.938195
vt 0.805616 0.938218
vt 0.962792 0.742702
vt 0.940666 0.742702
vt 0.940858 0.653524
vt 0.963002 0.653524
vt 0.940032 0.824046
vt 0.906283 0.824043
vt 0.906831 0.742703
vt 0.905357 0.890484
vt 0.861160 0.890462
vt 0.861897 0.824040
vt 0.861215 0.938240
vt 0.805583 0.890438
vt 0.690688 0.966418
vt 0.742813 0.978789
vt 0.690683 0.978766
vt 0.690681 0.982927
vt 0.742895 0.824029
vt 0.742659 0.890415
vt 0.690713 0.890400
vt 0.690730 0.824020
vt 0.690698 0.938177
vt 0.743077 0.653524
vt 0.743035 0.742702
vt 0.690740 0.742699
vt 0.690743 0.653524
vt 0.806085 0.824036
vt 0.806472 0.653524
vt 0.806382 0.742704
vt 0.862465 0.653524
vt 0.862333 0.742704
vt 0.906997 0.653524
vt 0.970967 0.653524
vt 0.685761 0.742698
vt 0.685764 0.653524
vt 0.685703 0.982925
vt 0.685704 0.978764
vt 0.685709 0.966417
vt 0.685719 0.938175
vt 0.186634 0.762348
vt 0.189236 0.765403
vt 0.685735 0.890398
vt 0.685751 0.824019
vt 0.135800 0.087814
vt 0.173285 0.088814
vt 0.174244 0.134758
vt 0.105265 0.132977
vt 0.175217 0.180978
vt 0.080795 0.176962
vt 0.176255 0.230197
vt 0.177402 0.284551
vt 0.039771 0.275961
vt 0.060809 0.223139
vt 0.178661 0.344248
vt 0.026597 0.335963
vt 0.162629 0.050919
vt 0.173319 0.051168
vt 0.805840 0.340577
vt 0.805616 0.368829
vt 0.742666 0.368852
vt 0.742762 0.340607
vt 0.962792 0.564346
vt 0.940666 0.564345
vt 0.940032 0.483001
vt 0.906831 0.564344
vt 0.906283 0.483004
vt 0.905357 0.416563
vt 0.861897 0.483007
vt 0.861160 0.416586
vt 0.861215 0.368807
vt 0.805583 0.416609
vt 0.690688 0.340629
vt 0.690683 0.328281
vt 0.742813 0.328258
vt 0.690681 0.324120
vt 0.742895 0.483019
vt 0.690730 0.483027
vt 0.690714 0.416647
vt 0.742660 0.416632
vt 0.690698 0.368870
vt 0.690740 0.564349
vt 0.743035 0.564345
vt 0.806085 0.483011
vt 0.806382 0.564344
vt 0.862333 0.564344
vt 0.685761 0.564349
vt 0.685704 0.328283
vt 0.685703 0.324123
vt 0.685709 0.340631
vt 0.685719 0.368872
vt 0.170723 0.048110
vt 0.173325 0.051164
vt 0.685735 0.416649
vt 0.685751 0.483028
vt 0.224159 0.725699
vt 0.254694 0.680535
vt 0.279163 0.636551
vt 0.320187 0.537552
vt 0.299149 0.590373
vt 0.333362 0.477550
vt 0.336691 0.413737
vt 0.197330 0.762593
vt 0.503264 0.340577
vt 0.503040 0.368829
vt 0.440090 0.368852
vt 0.440186 0.340607
vt 0.660216 0.564346
vt 0.660426 0.653524
vt 0.638282 0.653524
vt 0.638090 0.564345
vt 0.637456 0.483001
vt 0.604255 0.564344
vt 0.603707 0.483004
vt 0.602781 0.416563
vt 0.559321 0.483007
vt 0.558583 0.416586
vt 0.558639 0.368807
vt 0.503007 0.416609
vt 0.388112 0.340629
vt 0.388107 0.328281
vt 0.440237 0.328258
vt 0.388105 0.324120
vt 0.440319 0.483019
vt 0.388154 0.483027
vt 0.388137 0.416647
vt 0.440083 0.416632
vt 0.388122 0.368870
vt 0.440501 0.653524
vt 0.388167 0.653524
vt 0.388164 0.564349
vt 0.440459 0.564345
vt 0.503509 0.483011
vt 0.503895 0.653524
vt 0.503806 0.564344
vt 0.559889 0.653524
vt 0.559757 0.564344
vt 0.604421 0.653524
vt 0.668391 0.653524
vt 0.383188 0.653524
vt 0.383185 0.564349
vt 0.383128 0.328283
vt 0.383126 0.324123
vt 0.383133 0.340631
vt 0.383143 0.368872
vt 0.383159 0.416649
vt 0.383175 0.483028
vt 0.210778 0.091157
vt 0.243275 0.139125
vt 0.269647 0.185374
vt 0.291620 0.233420
vt 0.314928 0.288217
vt 0.330661 0.349507
vt 0.182369 0.051844
vt 0.503264 0.966470
vt 0.440186 0.966440
vt 0.440090 0.938195
vt 0.503040 0.938218
vt 0.660216 0.742702
vt 0.638090 0.742702
vt 0.637456 0.824046
vt 0.603707 0.824043
vt 0.604255 0.742703
vt 0.602781 0.890484
vt 0.558583 0.890462
vt 0.559321 0.824040
vt 0.558639 0.938240
vt 0.503007 0.890438
vt 0.388112 0.966419
vt 0.440237 0.978789
vt 0.388107 0.978766
vt 0.388105 0.982927
vt 0.440319 0.824029
vt 0.440083 0.890415
vt 0.388137 0.890400
vt 0.388154 0.824020
vt 0.388122 0.938177
vt 0.440459 0.742702
vt 0.388164 0.742699
vt 0.503509 0.824036
vt 0.503806 0.742704
vt 0.559757 0.742704
vt 0.383185 0.742698
vt 0.383126 0.982925
vt 0.383128 0.978764
vt 0.383133 0.966417
vt 0.383143 0.938175
vt 0.383159 0.890398
vt 0.383175 0.824019
vt 0.478841 0.117280
vt 0.493171 0.142275
vt 0.469410 0.154097
vt 0.454776 0.124780
vt 0.500405 0.172477
vt 0.485823 0.186981
vt 0.465467 0.189916
vt 0.445679 0.165980
vt 0.434317 0.139504
vt 0.421946 0.179952
vt 0.411293 0.133224
vt 0.463508 0.209779
vt 0.638314 0.130156
vt 0.637168 0.181300
vt 0.620116 0.170926
vt 0.612882 0.140724
vt 0.607374 0.093555
vt 0.598553 0.115730
vt 0.589121 0.152547
vt 0.574488 0.123230
vt 0.605535 0.185430
vt 0.585178 0.188365
vt 0.565390 0.164430
vt 0.554028 0.137954
vt 0.541657 0.178402
vt 0.531004 0.131674
vt 0.583219 0.208229
vt 0.518602 0.131706
vt 0.517457 0.182851
vt 0.487663 0.095105
vt 0.440716 0.096611
vt 0.560427 0.095061
vt 0.616914 0.208229
vt 0.497203 0.209779
s 1
usemtl watermelon
f 425/242/421 427/245/424 428/244/423 426/243/422
f 426/243/422 428/244/423 422/247/426 421/246/425
f 429/248/427 431/251/430 432/250/429 430/249/428
f 431/251/430 433/253/432 434/252/431 432/250/429
f 422/247/426 429/248/427 430/249/428 421/246/425
f 433/253/432 424/255/434 423/254/433 434/252/431
f 425/242/421 435/257/436 436/256/435 427/245/424
f 426/258/422 454/261/439 449/260/438 446/259/437
f 434/262/431 464/265/442 463/264/441 462/263/440
f 432/266/429 462/263/440 460/268/444 461/267/443
f 430/269/428 461/267/443 455/271/446 458/270/445
f 421/272/425 458/270/445 453/273/447 454/261/439
f 442/274/448 443/276/449 425/275/421 446/259/437
f 443/276/449 435/277/436 425/275/421
f 444/278/450 439/281/453 440/280/452 447/279/451
f 447/279/451 440/280/452 441/282/454 449/260/438
f 445/283/455 437/286/458 438/285/457 448/284/456
f 449/260/438 441/282/454 442/274/448 446/259/437
f 425/275/421 426/258/422 446/259/437
f 448/284/456 438/285/457 439/281/453 444/278/450
f 452/287/459 444/278/450 447/279/451 453/273/447
f 453/273/447 447/279/451 449/260/438 454/261/439
f 450/288/460 445/283/455 448/284/456 451/289/461
f 454/261/439 426/258/422 421/272/425
f 451/289/461 448/284/456 444/278/450 452/287/459
f 455/271/446 452/287/459 453/273/447 458/270/445
f 458/270/445 421/272/425 430/269/428
f 457/290/462 450/288/460 451/289/461 456/291/463
f 456/291/463 451/289/461 452/287/459 455/271/446
f 461/267/443 430/269/428 432/266/429
f 459/292/442 457/290/462 456/291/463 460/268/444
f 460/268/444 456/291/463 455/271/446 461/267/443
f 463/264/441 459/292/442 460/268/444 462/263/440
f 462/263/440 432/266/429 434/262/431
f 464/265/442 434/262/431 423/293/433
f 437/286/458 467/295/465 468/294/464 438/285/457
f 443/276/449 473/297/467 465/296/466 435/277/436
f 442/274/448 472/298/468 473/297/467 443/276/449
f 441/282/454 471/299/469 472/298/468 442/274/448
f 435/257/436 465/301/466 466/300/470 436/256/435
f 440/280/452 470/302/471 471/299/469 441/282/454
f 439/281/453 469/303/472 470/302/471 440/280/452
f 438/285/457 468/294/464 469/303/472 439/281/453
f 476/304/473 477/307/476 479/306/475 478/305/474
f 477/307/476 474/309/478 475/308/477 479/306/475
f 480/310/479 481/313/482 483/312/481 482/311/480
f 482/311/480 483/312/481 485/315/484 484/314/483
f 475/308/477 474/309/478 481/313/482 480/310/479
f 484/314/483 485/315/484 423/254/433 424/255/434
f 476/304/473 478/305/474 487/317/486 486/316/485
f 477/318/476 495/321/489 498/320/488 502/319/487
f 485/322/484 508/323/490 463/264/441 464/265/442
f 483/324/481 507/326/492 506/325/491 508/323/490
f 481/327/482 505/329/494 503/328/493 507/326/492
f 474/330/478 502/319/487 501/331/495 505/329/494
f 492/332/496 495/321/489 476/334/473 493/333/497
f 493/333/497 476/334/473 486/335/485
f 494/336/498 496/339/501 490/338/500 489/337/499
f 496/339/501 498/320/488 491/340/502 490/338/500
f 445/283/455 497/342/504 488/341/503 437/286/458
f 498/320/488 495/321/489 492/332/496 491/340/502
f 476/334/473 495/321/489 477/318/476
f 497/342/504 494/336/498 489/337/499 488/341/503
f 500/343/505 501/331/495 496/339/501 494/336/498
f 501/331/495 502/319/487 498/320/488 496/339/501
f 450/288/460 499/344/506 497/342/504 445/283/455
f 502/319/487 474/330/478 477/318/476
f 499/344/506 500/343/505 494/336/498 497/342/504
f 503/328/493 505/329/494 501/331/495 500/343/505
f 505/329/494 481/327/482 474/330/478
f 457/290/462 504/345/507 499/344/506 450/288/460
f 504/345/507 503/328/493 500/343/505 499/344/506
f 507/326/492 483/324/481 481/327/482
f 459/292/442 506/325/491 504/345/507 457/290/462
f 506/325/491 507/326/492 503/328/493 504/345/507
f 463/264/441 508/323/490 506/325/491 459/292/442
f 508/323/490 485/322/484 483/324/481
f 464/265/442 423/293/433 485/322/484
f 437/286/458 488/341/503 511/346/508 467/295/465
f 493/333/497 486/335/485 509/348/510 516/347/509
f 492/332/496 493/333/497 516/347/509 515/349/511
f 491/340/502 492/332/496 515/349/511 514/350/512
f 486/316/485 487/317/486 510/352/513 509/351/510
f 490/338/500 491/340/502 514/350/512 513/353/514
f 489/337/499 490/338/500 513/353/514 512/354/515
f 488/341/503 489/337/499 512/354/515 511/346/508
f 519/355/516 520/356/517 428/244/423 427/245/424
f 520/356/517 517/357/518 422/247/426 428/244/423
f 429/248/427 521/359/520 522/358/519 431/251/430
f 431/251/430 522/358/519 523/360/521 433/253/432
f 422/247/426 517/357/518 521/359/520 429/248/427
f 433/253/432 523/360/521 518/361/522 424/255/434
f 519/355/516 427/245/424 436/256/435 524/362/523
f 520/363/517 534/366/526 537/365/525 542/364/524
f 523/367/521 550/370/529 551/369/528 552/368/527
f 522/371/519 549/373/531 548/372/530 550/370/529
f 521/374/520 546/376/533 543/375/532 549/373/531
f 517/377/518 542/364/524 541/378/534 546/376/533
f 530/379/535 534/366/526 519/381/516 531/380/536
f 531/380/536 519/381/516 524/382/523
f 532/383/537 535/386/540 528/385/539 527/384/538
f 535/386/540 537/365/525 529/387/541 528/385/539
f 533/388/542 536/391/545 526/390/544 525/389/543
f 537/365/525 534/366/526 530/379/535 529/387/541
f 519/381/516 534/366/526 520/363/517
f 536/391/545 532/383/537 527/384/538 526/390/544
f 540/392/546 541/378/534 535/386/540 532/383/537
f 541/378/534 542/364/524 537/365/525 535/386/540
f 538/393/547 539/394/548 536/391/545 533/388/542
f 542/364/524 517/377/518 520/363/517
f 539/394/548 540/392/546 532/383/537 536/391/545
f 543/375/532 546/376/533 541/378/534 540/392/546
f 546/376/533 521/374/520 517/377/518
f 545/395/549 544/396/550 539/394/548 538/393/547
f 544/396/550 543/375/532 540/392/546 539/394/548
f 549/373/531 522/371/519 521/374/520
f 547/397/527 548/372/530 544/396/550 545/395/549
f 548/372/530 549/373/531 543/375/532 544/396/550
f 551/369/528 550/370/529 548/372/530 547/397/527
f 550/370/529 523/367/521 522/371/519
f 552/368/527 518/398/522 523/367/521
f 525/389/543 526/390/544 468/400/464 467/399/465
f 531/380/536 524/382/523 465/402/466 473/401/467
f 530/379/535 531/380/536 473/401/467 472/403/468
f 529/387/541 530/379/535 472/403/468 471/404/469
f 524/362/523 436/256/435 466/300/470 465/301/466
f 528/385/539 529/387/541 471/404/469 470/405/471
f 527/384/538 528/385/539 470/405/471 469/406/472
f 526/390/544 527/384/538 469/406/472 468/400/464
f 554/407/551 478/305/474 479/306/475 555/408/552
f 555/408/552 479/306/475 475/308/477 553/409/553
f 480/310/479 482/311/480 557/411/555 556/410/554
f 482/311/480 484/314/483 558/412/556 557/411/555
f 475/308/477 480/310/479 556/410/554 553/409/553
f 484/314/483 424/255/434 518/361/522 558/412/556
f 554/407/551 559/413/557 487/317/486 478/305/474
f 555/414/552 574/417/560 570/416/559 567/415/558
f 558/418/556 552/368/527 551/369/528 580/419/561
f 557/420/555 580/419/561 578/422/563 579/421/562
f 556/423/554 579/421/562 575/425/565 577/424/564
f 553/426/553 577/424/564 573/427/566 574/417/560
f 564/428/567 565/430/568 554/429/551 567/415/558
f 565/430/568 559/431/557 554/429/551
f 566/432/569 561/435/572 562/434/571 568/433/570
f 568/433/570 562/434/571 563/436/573 570/416/559
f 533/388/542 525/389/543 560/438/575 569/437/574
f 570/416/559 563/436/573 564/428/567 567/415/558
f 554/429/551 555/414/552 567/415/558
f 569/437/574 560/438/575 561/435/572 566/432/569
f 572/439/576 566/432/569 568/433/570 573/427/566
f 573/427/566 568/433/570 570/416/559 574/417/560
f 538/393/547 533/388/542 569/437/574 571/440/577
f 574/417/560 555/414/552 553/426/553
f 571/440/577 569/437/574 566/432/569 572/439/576
f 575/425/565 572/439/576 573/427/566 577/424/564
f 577/424/564 553/426/553 556/423/554
f 545/395/549 538/393/547 571/440/577 576/441/578
f 576/441/578 571/440/577 572/439/576 575/425/565
f 579/421/562 556/423/554 557/420/555
f 547/397/527 545/395/549 576/441/578 578/422/563
f 578/422/563 576/441/578 575/425/565 579/421/562
f 551/369/528 547/397/527 578/422/563 580/419/561
f 580/419/561 557/420/555 558/418/556
f 552/368/527 558/418/556 518/398/522
f 525/389/543 467/399/465 511/442/508 560/438/575
f 565/430/568 516/444/509 509/443/510 559/431/557
f 564/428/567 515/445/511 516/444/509 565/430/568
f 563/436/573 514/446/512 515/445/511 564/428/567
f 559/413/557 509/351/510 510/352/513 487/317/486
f 562/434/571 513/447/514 514/446/512 563/436/573
f 561/435/572 512/448/515 513/447/514 562/434/571
f 560/438/575 511/442/508 512/448/515 561/435/572
f 581/449/579 589/452/582 601/451/581 590/450/580
f 590/450/580 601/451/581 591/454/584 582/453/583
f 601/451/581 592/456/586 584/455/585 591/454/584
f 589/452/582 583/457/587 592/456/586 601/451/581
f 583/457/587 593/459/589 602/458/588 592/456/586
f 592/456/586 602/458/588 594/460/590 584/455/585
f 602/461/588 595/464/592 588/463/591 594/462/590
f 593/465/589 587/466/593 595/464/592 602/461/588
f 587/466/593 596/468/595 603/467/594 595/464/592
f 595/464/592 603/467/594 597/469/596 588/463/591
f 603/467/594 598/471/598 586/470/597 597/469/596
f 596/468/595 585/472/599 598/471/598 603/467/594
f 585/472/599 599/474/601 604/473/600 598/471/598
f 598/471/598 604/473/600 600/475/602 586/470/597
f 604/476/600 590/450/580 582/453/583 600/477/602
f 599/478/601 581/449/579 590/450/580 604/476/600
f 583/457/587 589/452/582 605/479/603 593/459/589
f 593/465/589 605/480/603 596/468/595 587/466/593
f 605/480/603 599/474/601 585/472/599 596/468/595
f 589/452/582 581/449/579 599/478/601 605/479/603
f 588/463/591 597/469/596 606/481/604 594/462/590
f 594/460/590 606/482/604 591/454/584 584/455/585
f 606/482/604 600/477/602 582/453/583 591/454/584
f 597/469/596 586/470/597 600/475/602 606/481/604
f 607/449/605 615/452/608 627/451/607 616/450/606
f 616/450/606 627/451/607 617/454/610 608/453/609
f 627/451/607 618/456/612 610/455/611 617/454/610
f 615/452/608 609/457/613 618/456/612 627/451/607
f 609/457/613 619/459/615 628/458/614 618/456/612
f 618/456/612 628/458/614 620/460/616 610/455/611
f 628/461/614 621/464/618 614/463/617 620/462/616
f 619/465/615 613/466/619 621/464/618 628/461/614
f 613/466/619 622/468/621 629/467/620 621/464/618
f 621/464/618 629/467/620 623/469/622 614/463/617
f 629/467/620 624/471/624 612/470/623 623/469/622
f 622/468/621 611/472/625 624/471/624 629/467/620
f 611/472/625 625/474/627 630/473/626 624/471/624
f 624/471/624 630/473/626 626/475/628 612/470/623
f 630/476/626 616/450/606 608/453/609 626/477/628
f 625/478/627 607/449/605 616/450/606 630/476/626
f 609/457/613 615/452/608 631/479/629 619/459/615
f 619/465/615 631/480/629 622/468/621 613/466/619
f 631/480/629 625/474/627 611/472/625 622/468/621
f 615/452/608 607/449/605 625/478/627 631/479/629
f 614/463/617 623/469/622 632/481/630 620/462/616
f 620/460/616 632/482/630 617/454/610 610/455/611
f 632/482/630 626/477/628 608/453/609 617/454/610
f 623/469/622 612/470/623 626/475/628 632/481/630
f 633/449/631 641/452/634 653/451/633 642/450/632
f 642/450/632 653/451/633 643/454/636 634/453/635
f 653/451/633 644/456/638 636/455/637 643/454/636
f 641/452/634 635/457/639 644/456/638 653/451/633
f 635/457/639 645/459/641 654/458/640 644/456/638
f 644/456/638 654/458/640 646/460/642 636/455/637
f 654/461/640 647/464/644 640/463/643 646/462/642
f 645/465/641 639/466/645 647/464/644 654/461/640
f 639/466/645 648/468/647 655/467/646 647/464/644
f 647/464/644 655/467/646 649/469/648 640/463/643
f 655/467/646 650/471/650 638/470/649 649/469/648
f 648/468/647 637/472/651 650/471/650 655/467/646
f 637/472/651 651/474/653 656/473/652 650/471/650
f 650/471/650 656/473/652 652/475/654 638/470/649
f 656/476/652 642/450/632 634/453/635 652/477/654
f 651/478/653 633/449/631 642/450/632 656/476/652
f 635/457/639 641/452/634 657/479/655 645/459/641
f 645/465/641 657/480/655 648/468/647 639/466/645
f 657/480/655 651/474/653 637/472/651 648/468/647
f 641/452/634 633/449/631 651/478/653 657/479/655
f 640/463/643 649/469/648 658/481/656 646/462/642
f 646/460/642 658/482/656 643/454/636 636/455/637
f 658/482/656 652/477/654 634/453/635 643/454/636
f 649/469/648 638/470/649 652/475/654 658/481/656
f 659/449/657 667/452/660 679/451/659 668/450/658
f 668/450/658 679/451/659 669/454/662 660/453/661
f 679/451/659 670/456/664 662/455/663 669/454/662
f 667/452/660 661/457/665 670/456/664 679/451/659
f 661/457/665 671/459/667 680/458/666 670/456/664
f 670/456/664 680/458/666 672/460/668 662/455/663
f 680/461/666 673/464/670 666/463/669 672/462/668
f 671/465/667 665/466/671 673/464/670 680/461/666
f 665/466/671 674/468/673 681/467/672 673/464/670
f 673/464/670 681/467/672 675/469/674 666/463/669
f 681/467/672 676/471/676 664/470/675 675/469/674
f 674/468/673 663/472/677 676/471/676 681/467/672
f 663/472/677 677/474/679 682/473/678 676/471/676
f 676/471/676 682/473/678 678/475/680 664/470/675
f 682/476/678 668/450/658 660/453/661 678/477/680
f 677/478/679 659/449/657 668/450/658 682/476/678
f 661/457/665 667/452/660 683/479/681 671/459/667
f 671/465/667 683/480/681 674/468/673 665/466/671
f 683/480/681 677/474/679 663/472/677 674/468/673
f 667/452/660 659/449/657 677/478/679 683/479/681
f 666/463/669 675/469/674 684/481/682 672/462/668
f 672/460/668 684/482/682 669/454/662 662/455/663
f 684/482/682 678/477/680 660/453/661 669/454/662
f 675/469/674 664/470/675 678/475/680 684/481/682
f 685/449/683 693/452/686 705/451/685 694/450/684
f 694/450/684 705/451/685 695/454/688 686/453/687
f 705/451/685 696/456/690 688/455/689 695/454/688
f 693/452/686 687/457/691 696/456/690 705/451/685
f 687/457/691 697/459/693 706/458/692 696/456/690
f 696/456/690 706/458/692 698/460/694 688/455/689
f 706/461/692 699/464/696 692/463/695 698/462/694
f 697/465/693 691/466/697 699/464/696 706/461/692
f 691/466/697 700/468/699 707/467/698 699/464/696
f 699/464/696 707/467/698 701/469/700 692/463/695
f 707/467/698 702/471/702 690/470/701 701/469/700
f 700/468/699 689/472/703 702/471/702 707/467/698
f 689/472/703 703/474/705 708/473/704 702/471/702
f 702/471/702 708/473/704 704/475/706 690/470/701
f 708/476/704 694/450/684 686/453/687 704/477/706
f 703/478/705 685/449/683 694/450/684 708/476/704
f 687/457/691 693/452/686 709/479/707 697/459/693
f 697/465/693 709/480/707 700/468/699 691/466/697
f 709/480/707 703/474/705 689/472/703 700/468/699
f 693/452/686 685/449/683 703/478/705 709/479/707
f 692/463/695 701/469/700 710/481/708 698/462/694
f 698/460/694 710/482/708 695/454/688 688/455/689
f 710/482/708 704/477/706 686/453/687 695/454/688
f 701/469/700 690/470/701 704/475/706 710/481/708
f 711/449/709 719/452/712 731/451/711 720/450/710
f 720/450/710 731/451/711 721/454/714 712/453/713
f 731/451/711 722/456/716 714/455/715 721/454/714
f 719/452/712 713/457/717 722/456/716 731/451/711
f 713/457/717 723/459/719 732/458/718 722/456/716
f 722/456/716 732/458/718 724/460/720 714/455/715
f 732/461/718 725/464/722 718/463/721 724/462/720
f 723/465/719 717/466/723 725/464/722 732/461/718
f 717/466/723 726/468/725 733/467/724 725/464/722
f 725/464/722 733/467/724 727/469/726 718/463/721
f 733/467/724 728/471/728 716/470/727 727/469/726
f 726/468/725 715/472/729 728/471/728 733/467/724
f 715/472/729 729/474/731 734/473/730 728/471/728
f 728/471/728 734/473/730 730/475/732 716/470/727
f 734/476/730 720/450/710 712/453/713 730/477/732
f 729/478/731 711/449/709 720/450/710 734/476/730
f 713/457/717 719/452/712 735/479/733 723/459/719
f 723/465/719 735/480/733 726/468/725 717/466/723
f 735/480/733 729/474/731 715/472/729 726/468/725
f 719/452/712 711/449/709 729/478/731 735/479/733
f 718/463/721 727/469/726 736/481/734 724/462/720
f 724/460/720 736/482/734 721/454/714 714/455/715
f 736/482/734 730/477/732 712/453/713 721/454/714
f 727/469/726 716/470/727 730/475/732 736/481/734
f 737/449/735 745/452/738 757/451/737 746/450/736
f 746/450/736 757/451/737 747/454/740 738/453/739
f 757/451/737 748/456/742 740/455/741 747/454/740
f 745/452/738 739/457/743 748/456/742 757/451/737
f 739/457/743 749/459/745 758/458/744 748/456/742
f 748/456/742 758/458/744 750/460/746 740/455/741
f 758/461/744 751/464/748 744/463/747 750/462/746
f 749/465/745 743/466/749 751/464/748 758/461/744
f 743/466/749 752/468/751 759/467/750 751/464/748
f 751/464/748 759/467/750 753/469/752 744/463/747
f 759/467/750 754/471/754 742/470/753 753/469/752
f 752/468/751 741/472/755 754/471/754 759/467/750
f 741/472/755 755/474/757 760/473/756 754/471/754
f 754/471/754 760/473/756 756/475/758 742/470/753
f 760/476/756 746/450/736 738/453/739 756/477/758
f 755/478/757 737/449/735 746/450/736 760/476/756
f 739/457/743 745/452/738 761/479/759 749/459/745
f 749/465/745 761/480/759 752/468/751 743/466/749
f 761/480/759 755/474/757 741/472/755 752/468/751
f 745/452/738 737/449/735 755/478/757 761/479/759
f 744/463/747 753/469/752 762/481/760 750/462/746
f 750/460/746 762/482/760 747/454/740 740/455/741
f 762/482/760 756/477/758 738/453/739 747/454/740
f 753/469/752 742/470/753 756/475/758 762/481/760
f 763/449/761 771/452/764 783/451/763 772/450/762
f 772/450/762 783/451/763 773/454/766 764/453/765
f 783/451/763 774/456/768 766/455/767 773/454/766
f 771/452/764 765/457/769 774/456/768 783/451/763
f 765/457/769 775/459/771 784/458/770 774/456/768
f 774/456/768 784/458/770 776/460/772 766/455/767
f 784/461/770 777/464/774 770/463/773 776/462/772
f 775/465/771 769/466/775 777/464/774 784/461/770
f 769/466/775 778/468/777 785/467/776 777/464/774
f 777/464/774 785/467/776 779/469/778 770/463/773
f 785/467/776 780/471/780 768/470/779 779/469/778
f 778/468/777 767/472/781 780/471/780 785/467/776
f 767/472/781 781/474/783 786/473/782 780/471/780
f 780/471/780 786/473/782 782/475/784 768/470/779
f 786/476/782 772/450/762 764/453/765 782/477/784
f 781/478/783 763/449/761 772/450/762 786/476/782
f 765/457/769 771/452/764 787/479/785 775/459/771
f 775/465/771 787/480/785 778/468/777 769/466/775
f 787/480/785 781/474/783 767/472/781 778/468/777
f 771/452/764 763/449/761 781/478/783 787/479/785
f 770/463/773 779/469/778 788/481/786 776/462/772
f 776/460/772 788/482/786 773/454/766 766/455/767
f 788/482/786 782/477/784 764/453/765 773/454/766
f 779/469/778 768/470/779 782/475/784 788/481/786
f 789/449/787 797/452/790 809/451/789 798/450/788
f 798/450/788 809/451/789 799/454/792 790/453/791
f 809/451/789 800/456/794 792/455/793 799/454/792
f 797/452/790 791/457/795 800/456/794 809/451/789
f 791/457/795 801/459/797 810/458/796 800/456/794
f 800/456/794 810/458/796 802/460/798 792/455/793
f 810/461/796 803/464/800 796/463/799 802/462/798
f 801/465/797 795/466/801 803/464/800 810/461/796
f 795/466/801 804/468/803 811/467/802 803/464/800
f 803/464/800 811/467/802 805/469/804 796/463/799
f 811/467/802 806/471/806 794/470/805 805/469/804
f 804/468/803 793/472/807 806/471/806 811/467/802
f 793/472/807 807/474/809 812/473/808 806/471/806
f 806/471/806 812/473/808 808/475/810 794/470/805
f 812/476/808 798/450/788 790/453/791 808/477/810
f 807/478/809 789/449/787 798/450/788 812/476/808
f 791/457/795 797/452/790 813/479/811 801/459/797
f 801/465/797 813/480/811 804/468/803 795/466/801
f 813/480/811 807/474/809 793/472/807 804/468/803
f 797/452/790 789/449/787 807/478/809 813/479/811
f 796/463/799 805/469/804 814/481/812 802/462/798
f 802/460/798 814/482/812 799/454/792 792/455/793
f 814/482/812 808/477/810 790/453/791 799/454/792
f 805/469/804 794/470/805 808/475/810 814/481/812
f 815/449/813 823/452/816 835/451/815 824/450/814
f 824/450/814 835/451/815 825/454/818 816/453/817
f 835/451/815 826/456/820 818/455/819 825/454/818
f 823/452/816 817/457/821 826/456/820 835/451/815
f 817/457/821 827/459/823 836/458/822 826/456/820
f 826/456/820 836/458/822 828/460/824 818/455/819
f 836/461/822 829/464/826 822/463/825 828/462/824
f 827/465/823 821/466/827 829/464/826 836/461/822
f 821/466/827 830/468/829 837/467/828 829/464/826
f 829/464/826 837/467/828 831/469/830 822/463/825
f 837/467/828 832/471/832 820/470/831 831/469/830
f 830/468/829 819/472/833 832/471/832 837/467/828
f 819/472/833 833/474/835 838/473/834 832/471/832
f 832/471/832 838/473/834 834/475/836 820/470/831
f 838/476/834 824/450/814 816/453/817 834/477/836
f 833/478/835 815/449/813 824/450/814 838/476/834
f 817/457/821 823/452/816 839/479/837 827/459/823
f 827/465/823 839/480/837 830/468/829 821/466/827
f 839/480/837 833/474/835 819/472/833 830/468/829
f 823/452/816 815/449/813 833/478/835 839/479/837
f 822/463/825 831/469/830 840/481/838 828/462/824
f 828/460/824 840/482/838 825/454/818 818/455/819
f 840/482/838 834/477/836 816/453/817 825/454/818
f 831/469/830 820/470/831 834/475/836 840/481/838
